<svg width="324" height="324" viewBox="0 0 324 324" fill="none" xmlns="http://www.w3.org/2000/svg">
<path d="M48.6626 300.305V270.232L62.8401 270.232C65.3032 270.232 67.3224 270.576 68.8977 271.263C70.473 271.95 71.6329 272.939 72.3776 274.227C73.1509 275.488 73.5376 276.991 73.5376 278.738C73.5376 279.769 73.3371 280.686 72.9361 281.488C72.5638 282.261 72.0912 282.906 71.5184 283.421C70.9742 283.937 70.4586 284.309 69.9717 284.538C71.0601 285.054 72.0196 285.899 72.8502 287.073C73.7094 288.247 74.139 289.622 74.139 291.197C74.139 293.088 73.7094 294.72 72.8502 296.095C72.0196 297.441 70.788 298.486 69.1555 299.231C67.5516 299.947 65.5753 300.305 63.2267 300.305H48.6626ZM56.3528 294.72H62.3675C63.5991 294.72 64.5299 294.362 65.16 293.646C65.7901 292.93 66.1052 292.114 66.1052 291.197C66.1052 290.195 65.7758 289.35 65.1171 288.663C64.487 287.975 63.5704 287.631 62.3675 287.631H56.3528V294.72ZM56.3528 282.175H61.9808C63.1551 282.175 64.0287 281.875 64.6015 281.273C65.203 280.672 65.5037 279.898 65.5037 278.953C65.5037 278.037 65.203 277.292 64.6015 276.719C64.0287 276.118 63.1551 275.817 61.9808 275.817H56.3528V282.175Z" fill="white"/>
<path d="M73.4968 300.305C73.2677 300.305 72.1648 300.305 72.1648 300.305L72.6376 299.016L82.7336 271.435L83.1948 270.232H84.4091H90.7675H91.9763L92.443 271.435L102.496 299.016C102.553 299.131 102.944 300.305 102.944 300.305H101.637H96.3525H95.3277L94.9778 299.403L93.3022 295.021H81.8314C81.8314 295.021 80.2562 299.231 80.1989 299.403C80.1416 299.575 79.8858 300.305 79.8858 300.305H78.7811H73.4968ZM83.5929 288.834H91.5838L87.5454 277.492L83.5929 288.834Z" fill="white"/>
<path d="M104.321 300.39L102.096 294.151V271.391C102.096 271.076 102.096 270.317 102.096 270.317C102.096 270.317 102.855 270.317 103.17 270.317H107.724C108.211 270.317 108.691 270.317 108.691 270.317C108.691 270.317 109.127 271.018 109.185 271.133L119.667 287.673V271.391C119.667 271.076 119.667 270.317 119.667 270.317C119.667 270.317 120.426 270.317 120.741 270.317H125.897C126.212 270.317 126.971 270.317 126.971 270.317C126.971 270.317 126.971 271.076 126.971 271.391V299.316C126.971 299.602 126.971 300.39 126.971 300.39C126.971 300.39 126.212 300.39 125.897 300.39H121.3C120.842 300.39 120.4 300.39 120.4 300.39C120.4 300.39 119.939 299.66 119.882 299.574L109.399 283.678V299.316C109.399 299.631 109.399 300.39 109.399 300.39H104.321Z" fill="white"/>
<path d="M129.583 300.305C129.268 300.305 128.509 300.305 128.509 300.305C128.509 300.305 128.509 299.546 128.509 299.231V271.306C128.509 270.991 128.509 270.232 128.509 270.232C128.509 270.232 129.268 270.232 129.583 270.232H140.753C143.56 270.232 145.951 270.69 147.928 271.607C149.904 272.495 151.422 273.812 152.482 275.559C153.541 277.278 154.114 279.411 154.2 281.961C154.229 283.221 154.243 284.323 154.243 285.269C154.243 286.214 154.229 287.302 154.2 288.534C154.086 291.197 153.513 293.403 152.482 295.15C151.479 296.897 150.004 298.2 148.057 299.059C146.138 299.89 143.775 300.305 140.968 300.305H129.583ZM136.199 294.119H140.753C141.985 294.119 143.001 293.933 143.803 293.56C144.634 293.159 145.25 292.543 145.651 291.713C146.08 290.882 146.309 289.794 146.338 288.448C146.395 287.617 146.424 286.872 146.424 286.214C146.453 285.555 146.453 284.896 146.424 284.237C146.424 283.579 146.395 282.848 146.338 282.046C146.281 280.099 145.765 278.681 144.791 277.793C143.846 276.877 142.429 276.418 140.538 276.418H136.199V294.119Z" fill="white"/>
<path d="M156.634 300.305C156.319 300.305 155.56 300.305 155.56 300.305C155.56 300.305 155.56 299.546 155.56 299.231V271.306C155.56 270.991 155.56 270.232 155.56 270.232C155.56 270.232 156.319 270.232 156.634 270.232L175.889 270.232L177.771 272.897V275.344C177.771 275.659 177.771 276.418 177.771 276.418C177.771 276.418 177.012 276.418 176.697 276.418H162.992V282.218H175.752C176.067 282.218 176.826 282.218 176.826 282.218C176.826 282.218 176.826 283.02 176.826 283.335V287.073C176.826 287.359 176.826 288.147 176.826 288.147C176.826 288.147 176.067 288.147 175.752 288.147H162.992V294.119H177.889V300.305H156.634Z" fill="white"/>
<path d="M185.434 300.305C183.973 300.305 177.889 300.305 177.889 300.305V294.119C177.889 294.119 187.344 294.617 188.787 293.174C189.732 292.228 190.391 290.854 190.764 289.049L193.384 276.633H186.446H185.434L180.839 270.232L201.633 270.232C201.948 270.232 202.177 270.332 202.32 270.533C202.492 270.733 202.549 270.991 202.492 271.306L198.669 289.264C198.182 291.756 197.337 293.861 196.134 295.579C194.96 297.269 193.413 298.558 191.494 299.446C189.604 300.305 188.183 300.305 185.434 300.305Z" fill="white"/>
<path d="M211.643 274.901L201.336 299.987C201.219 300.338 201.015 300.616 200.722 300.821C200.43 301.025 200.123 301.128 199.801 301.128C199.246 301.128 198.836 300.982 198.573 300.689C198.31 300.397 198.179 300.046 198.179 299.637C198.149 299.432 198.179 299.213 198.266 298.979L209.625 271.349C209.771 270.94 209.991 270.647 210.283 270.472C210.605 270.267 210.956 270.179 211.336 270.209C211.716 270.209 212.052 270.311 212.344 270.516C212.666 270.72 212.885 270.998 213.002 271.349L224.317 298.716C224.405 298.95 224.449 299.183 224.449 299.417C224.449 299.944 224.273 300.368 223.923 300.689C223.572 300.982 223.177 301.128 222.738 301.128C222.388 301.128 222.066 301.025 221.774 300.821C221.481 300.616 221.262 300.324 221.116 299.944L210.678 274.857L211.643 274.901ZM203.529 292.839L205.02 289.418H218.046L218.704 292.839H203.529ZM237.63 278.015C239.618 278.015 241.402 278.512 242.981 279.506C244.56 280.5 245.802 281.875 246.709 283.629C247.644 285.383 248.112 287.401 248.112 289.681C248.112 291.932 247.644 293.95 246.709 295.733C245.802 297.488 244.56 298.876 242.981 299.9C241.431 300.894 239.677 301.391 237.718 301.391C236.636 301.391 235.613 301.23 234.648 300.908C233.712 300.558 232.85 300.119 232.06 299.593C231.3 299.037 230.657 298.423 230.131 297.751C229.604 297.049 229.224 296.362 228.99 295.689L229.955 295.076V308.013C229.955 308.51 229.795 308.934 229.473 309.285C229.151 309.636 228.727 309.811 228.201 309.811C227.704 309.811 227.28 309.636 226.929 309.285C226.608 308.964 226.447 308.54 226.447 308.013V279.989C226.447 279.492 226.608 279.082 226.929 278.761C227.28 278.41 227.704 278.234 228.201 278.234C228.727 278.234 229.151 278.41 229.473 278.761C229.795 279.082 229.955 279.492 229.955 279.989V283.892L229.297 283.541C229.502 282.81 229.853 282.108 230.35 281.436C230.876 280.764 231.505 280.179 232.236 279.682C232.996 279.155 233.829 278.746 234.736 278.454C235.671 278.161 236.636 278.015 237.63 278.015ZM237.236 281.261C235.774 281.261 234.473 281.626 233.332 282.357C232.221 283.088 231.344 284.082 230.701 285.339C230.087 286.597 229.78 288.044 229.78 289.681C229.78 291.289 230.087 292.736 230.701 294.023C231.344 295.309 232.221 296.318 233.332 297.049C234.473 297.78 235.774 298.145 237.236 298.145C238.697 298.145 239.984 297.78 241.095 297.049C242.206 296.318 243.083 295.309 243.726 294.023C244.37 292.736 244.691 291.289 244.691 289.681C244.691 288.044 244.37 286.597 243.726 285.339C243.083 284.082 242.206 283.088 241.095 282.357C239.984 281.626 238.697 281.261 237.236 281.261ZM262.377 278.015C264.365 278.015 266.149 278.512 267.727 279.506C269.306 280.5 270.549 281.875 271.455 283.629C272.391 285.383 272.859 287.401 272.859 289.681C272.859 291.932 272.391 293.95 271.455 295.733C270.549 297.488 269.306 298.876 267.727 299.9C266.178 300.894 264.424 301.391 262.465 301.391C261.383 301.391 260.359 301.23 259.395 300.908C258.459 300.558 257.596 300.119 256.807 299.593C256.047 299.037 255.404 298.423 254.877 297.751C254.351 297.049 253.971 296.362 253.737 295.689L254.702 295.076V308.013C254.702 308.51 254.541 308.934 254.22 309.285C253.898 309.636 253.474 309.811 252.948 309.811C252.451 309.811 252.027 309.636 251.676 309.285C251.354 308.964 251.193 308.54 251.193 308.013V279.989C251.193 279.492 251.354 279.082 251.676 278.761C252.027 278.41 252.451 278.234 252.948 278.234C253.474 278.234 253.898 278.41 254.22 278.761C254.541 279.082 254.702 279.492 254.702 279.989V283.892L254.044 283.541C254.249 282.81 254.6 282.108 255.097 281.436C255.623 280.764 256.252 280.179 256.982 279.682C257.743 279.155 258.576 278.746 259.482 278.454C260.418 278.161 261.383 278.015 262.377 278.015ZM261.982 281.261C260.52 281.261 259.219 281.626 258.079 282.357C256.968 283.088 256.091 284.082 255.448 285.339C254.834 286.597 254.527 288.044 254.527 289.681C254.527 291.289 254.834 292.736 255.448 294.023C256.091 295.309 256.968 296.318 258.079 297.049C259.219 297.78 260.52 298.145 261.982 298.145C263.444 298.145 264.731 297.78 265.842 297.049C266.953 296.318 267.83 295.309 268.473 294.023C269.116 292.736 269.438 291.289 269.438 289.681C269.438 288.044 269.116 286.597 268.473 285.339C267.83 284.082 266.953 283.088 265.842 282.357C264.731 281.626 263.444 281.261 261.982 281.261Z" fill="white"/>
<path d="M100.064 111.195C98.7194 109.026 98.6059 107.12 99.1497 105.203C103.225 90.9185 109.858 78.1756 122.173 69.2323C138.492 57.3796 156.388 54.5837 175.593 60.9163C178.21 61.7766 180.845 62.822 182.99 65.134C182.518 65.7315 182.106 66.2512 181.532 66.9621C169.838 59.8947 157.344 59.0165 144.419 61.9857C140.081 62.9834 135.522 63.7062 132.188 67.4879C132.343 68.6468 132.492 69.8118 132.624 70.8035C128.955 73.5516 125.37 76.246 121.767 78.9463C118.725 76.9927 117.518 77.0764 114.919 79.7229C110.395 84.323 107.288 89.8312 105.137 95.8591C103.386 100.77 101.851 105.764 100.064 111.195Z" fill="white"/>
<path d="M192.957 127.149C192.955 127.168 192.954 127.187 192.952 127.206C192.952 127.207 192.952 127.208 192.952 127.209C192.853 128.561 192.77 129.685 192.664 131.221C192.187 131.122 191.728 131.026 191.272 130.931C189.879 130.64 188.507 130.354 186.685 129.977C186.631 129.966 186.577 129.954 186.522 129.943C186.536 129.934 186.55 129.924 186.563 129.915C186.603 129.887 186.643 129.86 186.683 129.833C189.003 128.257 190.737 127.551 192.957 127.149Z" fill="white"/>
<path fill-rule="evenodd" clip-rule="evenodd" d="M185.898 219.778C184.52 220.608 175.322 216.269 175.322 216.269C175.322 216.269 159.228 208.795 151.104 205.021L150.98 204.964C144.882 202.131 138.749 199.282 132.568 196.412C131.863 196.083 131.564 195.241 131.911 194.548L132.108 194.142C132.442 193.472 133.249 193.192 133.923 193.502C140.604 196.587 147.239 199.648 153.882 202.713L154.13 202.827L154.162 202.842C160.924 205.962 167.695 209.086 174.533 212.243C174.507 210.807 173.585 210.408 172.798 210.069C172.682 210.019 172.568 209.97 172.461 209.919C167.819 207.681 163.151 205.512 158.481 203.342L158.478 203.341L157.567 202.917C152.697 200.651 147.827 198.392 142.962 196.135L142.839 196.078C139.87 194.701 136.904 193.325 133.941 191.949C133.266 191.638 132.956 190.844 133.249 190.163C133.498 189.586 133.755 189.016 134.01 188.449C135.819 184.425 137.537 180.603 136.139 176.267C135.978 175.771 136.073 175.222 136.432 174.846C136.66 174.609 136.886 174.378 137.11 174.149C138.04 173.199 138.922 172.299 139.669 171.297C139.858 171.044 140.053 170.79 140.25 170.534C141.339 169.12 142.472 167.647 142.882 166.028C143.158 164.925 143.453 163.825 143.748 162.723L143.748 162.722L143.748 162.722C145.019 157.976 146.294 153.217 146.148 148.213C146.143 148.024 146.133 147.833 146.123 147.642L146.123 147.641C146.085 146.935 146.047 146.228 146.268 145.579C146.572 144.689 147.713 144.432 148.436 145.035L150.687 146.915L151.062 147.228L153.44 149.214L155.447 150.89C155.662 151.069 155.817 151.302 155.895 151.571C156.784 154.761 158.421 158.614 162.607 160.789C162.063 159.883 161.43 159.024 160.795 158.163C159.361 156.219 157.915 154.259 157.447 151.696C157.34 151.105 157.597 150.495 158.128 150.203C158.18 150.174 158.232 150.145 158.285 150.116C159.874 149.24 161.616 148.279 162.159 145.376C160.792 146.559 159.854 147.365 158.964 148.13C158.767 148.303 158.522 148.417 158.266 148.458C154.82 148.984 152.628 147.921 150.227 144.318C149.725 143.572 150.066 142.538 150.92 142.245L152.377 141.732C152.789 141.588 153.255 141.654 153.619 141.899C154.676 142.628 155.668 143.303 156.665 143.978L157.173 143.572L155.853 141.702C155.5 141.2 155.506 140.513 155.907 140.047C158.027 137.556 160.702 136.11 164.178 135.997C167.421 135.889 169.881 134.688 171.547 131.54C172.482 129.777 174.064 128.325 175.604 126.912C175.875 126.664 176.144 126.417 176.409 126.169C178.01 124.672 179.696 123.264 181.381 121.858L181.382 121.857C182.11 121.249 182.837 120.642 183.557 120.028C183.489 119.9 183.418 119.773 183.348 119.646C183.298 119.554 183.247 119.463 183.197 119.37C183.178 119.335 183.158 119.299 183.139 119.263L183.17 119.255C188.934 117.615 194.699 115.975 200.512 114.323C201.324 114.09 202.16 114.645 202.268 115.482C202.433 116.829 202.588 118.155 202.741 119.465L202.742 119.471L202.742 119.472C203.213 123.503 203.666 127.376 204.346 131.211C204.783 133.676 205.625 136.045 206.457 138.385C207.4 141.035 208.329 143.648 208.64 146.32C208.676 146.684 208.58 147.06 208.341 147.335C206.932 148.974 205.414 148.643 203.99 148.332L203.989 148.332C203.82 148.295 203.652 148.258 203.486 148.225C203.002 148.13 202.501 148.297 202.172 148.661C201.151 149.785 201.241 151.087 201.742 152.461C202.262 153.913 202.041 155.095 200.387 156.069C199.415 155.981 198.411 155.89 197.386 155.797L197.295 155.789L197.27 155.786L197.238 155.783C195.543 155.63 193.793 155.471 192.044 155.311C193.349 156.756 194.951 156.883 196.537 157.009C196.911 157.038 197.284 157.068 197.651 157.115C198.792 157.264 199.819 157.479 200.375 158.315C200.876 159.068 200.405 160.108 199.527 160.335L198.798 160.526C198.123 160.699 197.687 161.356 197.777 162.049C197.827 162.436 197.889 162.824 197.95 163.212C198.309 165.481 198.671 167.773 196.917 170.186C196.69 170.496 196.332 170.682 195.949 170.717C195.041 170.797 194.076 170.883 193.077 170.973L193.07 170.973C191.457 171.117 189.754 171.269 188.048 171.416C187.245 171.483 186.434 171.515 185.624 171.548C183.872 171.618 182.12 171.689 180.446 172.097C176.421 173.065 174.014 175.789 173.333 179.989C172.276 186.501 172.419 193.006 173.106 199.542C173.944 198.422 173.896 197.18 173.845 195.878C173.831 195.499 173.816 195.115 173.823 194.727C173.847 193.616 175.149 192.965 176.021 193.652C180.332 197.065 180.66 202.16 181.015 207.664C181.061 208.374 181.107 209.09 181.162 209.811C183.713 202.696 180.87 195.133 174.737 191.053C174.354 190.796 174.109 190.372 174.109 189.906V188.299C174.283 188.287 174.439 188.267 174.582 188.248C174.863 188.212 175.094 188.182 175.304 188.233C179.15 189.189 181.688 191.621 183.151 195.259C185.134 200.187 186.095 205.301 185.898 210.618C185.897 210.665 185.895 210.713 185.894 210.761L185.894 210.761L185.893 210.763C185.839 212.358 187.418 214.027 187.762 215.493C188.106 216.959 187.277 218.949 185.898 219.778ZM196.075 148.178C195.478 148.058 195.036 147.55 194.976 146.947C194.707 144.163 195.167 143.733 198.398 142C198.16 142.376 197.939 142.723 197.73 143.052L197.724 143.062C197.271 143.776 196.874 144.401 196.475 145.029C196.105 145.609 196.224 146.367 196.744 146.815L198.093 147.968C198.063 148.067 198.035 148.166 198.007 148.264C197.978 148.363 197.95 148.461 197.92 148.56L196.075 148.178ZM182.894 214.501C182.685 214.304 182.429 214.172 182.148 214.131C181.599 214.05 181.036 213.968 180.466 213.884L180.377 213.871L180.366 213.869C179.435 213.733 178.483 213.593 177.531 213.455C177.531 213.223 177.537 212.995 177.543 212.763V212.762L177.543 212.745C183.091 212.237 184.34 212.822 185.45 216.944C184.983 216.496 184.571 216.104 184.185 215.735L184.181 215.731C183.733 215.305 183.32 214.911 182.894 214.501ZM194.952 132.293C192.097 132.717 189.386 132.125 186.705 131.295C184.023 130.465 184.218 129.833 184.218 129.833C184.218 129.833 185.548 128.698 186.705 128.047C187.861 127.395 189.048 127.056 190.275 126.619C192.609 125.787 195.034 124.923 197.633 123.995C194.544 122.477 192.186 123.593 189.87 124.69C188.412 125.38 186.97 126.062 185.373 126.074C190.156 121.641 194.653 120.697 199.312 123.23C200.19 123.708 200.345 124.975 199.527 125.542C198.411 126.316 197.912 127.583 197.402 128.876C196.976 129.958 196.542 131.058 195.734 131.904C195.531 132.119 195.245 132.251 194.952 132.293Z" fill="white"/>
<path d="M97.7536 105.838C97.3413 105.098 97.174 104.77 96.9708 104.46C96.7855 104.179 96.5644 103.929 95.9011 103.075C95.0167 106.393 94.9064 106.567 94.1774 109.335C91.2501 111.917 88.8666 114.024 86.5532 116.057C89.0671 103.211 93.7394 86.0677 107.219 70.3237C120.699 54.5798 142.12 49.3165 161.557 50.7658C174.565 51.7358 186.47 56.2633 193.31 61.1353C190.299 61.7869 187.187 62.4504 183.369 63.2694C183.369 63.2694 174.305 57.1076 161.557 56.405C140.494 55.2439 126.377 60.9163 113.737 73.652C103.28 84.1882 97.7536 105.838 97.7536 105.838Z" fill="white"/>
<path d="M164.943 66.3418C171.974 67.0769 177.029 70.5611 182.364 72.7484C185.518 79.1271 180.523 84.8499 172.043 91.147C155.245 103.621 138.255 114.579 121.618 125.846C112.149 121.276 107.706 113.547 108.852 103.592C109.107 101.368 109.565 100.164 110.255 98.0353C112.468 91.2079 117.513 85.4453 121.767 81.1175C126.833 76.6392 129.415 74.455 135.122 71.4976C137.877 70.0697 139.476 69.3375 142.416 68.3462C144.827 67.5335 146.217 67.1681 148.716 66.6876C154.94 65.4904 157.912 65.6068 164.943 66.3418Z" fill="white"/>
<path d="M125.009 131.207C128.822 128.222 131.309 126.563 136.098 123.3L136.043 123.596C133.922 135.01 131.866 146.069 128 157.234C124.881 156.021 122.108 154.939 119.198 153.809C123.352 146.467 126.593 140.037 125.009 131.207Z" fill="white"/>
<path d="M157.066 130.499C155.167 127.796 153.656 125.254 151.751 123.059C150.432 121.546 148.718 120.177 146.903 119.333C143.779 117.88 141.689 118.963 140.913 122.335C139.605 128.035 138.584 133.806 137.354 139.529C135.897 146.323 134.368 153.099 132.816 159.875C132.493 161.274 131.944 162.626 131.412 164.271C125.381 163.344 120.031 161.358 114.453 157.65C115.755 156.598 116.692 155.85 117.815 154.947C121.297 156.185 124.802 157.435 128.665 158.81C133.455 146.18 135.282 133.304 138.136 119.854C134.127 122.748 133.411 123.3 130.893 124.961C128.671 126.426 126.534 128.017 124.157 129.697C123.458 128.675 122.945 127.933 122.324 127.018C123.715 126.055 124.915 125.23 126.11 124.411C141.785 113.586 157.466 102.773 173.13 91.9308C174.533 90.9619 175.817 89.8196 177.131 88.7252C180.761 85.6991 186.513 78.9613 184.026 73.9855C188.403 74.2187 201.604 81.3876 206.903 85.5957C212.203 89.8038 217.016 96.8742 217.016 96.8742C220.276 98.7581 224.378 101.033 227.68 102.941C227.674 103.204 227.668 103.467 227.662 103.736C204.534 106.439 182.38 112.36 161.557 123.651C159.562 118.167 156.445 113.879 151.536 111.188L150.832 111.846C152.193 113.024 153.662 114.106 154.898 115.41C156.147 116.732 157.323 118.179 158.231 119.752C159.192 121.414 159.795 123.286 160.643 125.284C161.401 125.015 162.226 124.829 162.936 124.453C181.43 114.555 201.166 108.622 221.911 105.895L222.177 105.86C224.627 105.536 227.088 105.211 229.549 105.154C230.719 105.124 231.902 105.776 233.078 106.122L233.006 107.091C230.546 107.546 228.074 107.97 225.62 108.455C214.978 110.554 204.265 112.336 193.726 114.866C181.209 117.868 169.385 122.766 158.499 129.763C158.105 130.014 157.663 130.194 157.066 130.499Z" fill="white"/>
<path d="M135.122 175.658C135.126 177.343 135.559 178.313 135.619 179.639C135.679 180.964 135.07 183.647 134.293 185.61C133.638 187.264 132.782 188.309 132.108 190.163C131.644 191.438 131.416 192.385 130.646 193.502C129.653 194.943 127.662 196.225 127.662 196.225C127.662 196.225 125.666 197.119 124.015 197.054C122.342 196.988 122.121 196.225 120.893 195.727C116.819 194.077 113.598 195.62 110.24 192.094C111.029 189.529 110.772 186.976 108.783 184.902L102.055 183.647C101.996 182.535 101.942 181.59 101.888 180.592C103.86 178.273 105.795 175.989 108.102 173.275L110.95 170.291C109.791 167.226 110.113 166.084 112.522 164.447C114.07 163.395 115.888 161.968 117.549 160.827C121.697 163.037 124.284 163.76 129.047 165.068C130.26 165.266 130.954 165.461 132.138 165.068C133.217 164.166 141.939 123.78 141.919 122.181C141.898 120.583 144.298 118.979 146.903 120.522C151.11 123.016 152.305 124.829 156.839 131.871C166.871 125.637 173.758 121.881 181.871 119.646L182.203 120.261C182.203 120.261 178.354 123.259 177.727 123.744C176.715 124.525 175.555 125.53 174.577 126.563C173.387 127.82 172.216 128.42 171.261 129.715C169.015 132.761 167.785 135.534 161.757 135.19C159.926 135.19 158.408 136.064 156.673 137.344C155.256 138.39 154.845 141.089 153.619 140.661C151.89 140.058 149.047 141.491 148.881 142.652C148.716 143.813 145.963 144.24 145.234 145.376C144.505 146.511 145.077 150.079 144.68 153.063C144.165 156.938 144.062 159.232 142.586 162.853C141.421 167.365 141.169 167.251 139.432 170.019C138.064 172.199 135.118 174.12 135.122 175.658Z" fill="white"/>
<path d="M217.493 150.959C215.913 150.415 214.426 149.475 213.16 148.219C211.243 146.318 211.234 146.285 211.245 141.015C211.25 138.584 211.346 135.526 211.459 134.221C211.537 133.314 211.696 131.26 211.883 128.832C211.883 128.828 211.883 128.823 211.884 128.818L211.884 128.817L211.884 128.817C212.021 127.045 212.172 125.076 212.32 123.208C212.588 119.807 212.84 116.742 212.958 115.815L213.146 114.342H214.889V142.079H217V114.342H219.435V142.079H220.509L221.565 142.1V114.349H224.044V142.1H226.193V114.349H227.967L228.158 115.822C228.344 117.26 228.86 123.835 229.252 128.832L229.252 128.833L229.252 128.836L229.252 128.837C229.252 128.838 229.252 128.839 229.252 128.84C229.264 128.991 229.276 129.14 229.288 129.288C229.463 131.523 229.609 133.385 229.684 134.237C229.748 134.967 229.807 136.245 229.848 137.654C229.879 138.767 229.9 139.962 229.902 141.035C229.913 146.309 229.904 146.341 227.953 148.244C226.664 149.501 225.151 150.441 223.542 150.986L222.557 151.319L222.557 152.238C222.558 152.743 223.118 160.741 223.118 160.741L224.514 171.533L224.532 171.536C224.68 171.558 224.829 171.581 224.978 171.606L224.991 171.608C225.476 171.689 225.964 171.788 226.455 171.908C226.423 172.526 226.397 173.052 226.372 173.571L226.365 173.715C226.358 173.849 226.352 173.982 226.345 174.117C226.341 174.194 226.337 174.271 226.334 174.35C226.331 174.396 226.329 174.443 226.327 174.491C226.32 174.615 226.314 174.741 226.308 174.87C225.844 174.962 225.384 175.046 224.925 175.121C224.777 175.145 224.63 175.168 224.483 175.19L224.451 175.195C224.39 175.204 224.329 175.213 224.267 175.222C221.627 175.599 219.029 175.647 216.229 175.173C216.162 175.161 216.096 175.15 216.029 175.138C215.997 175.132 215.966 175.127 215.934 175.121C215.348 175.015 214.754 174.885 214.147 174.731C214.267 174.294 214.37 173.915 214.464 173.571C214.482 173.505 214.499 173.441 214.516 173.378C214.52 173.365 214.523 173.352 214.526 173.34C214.547 173.262 214.568 173.186 214.588 173.112C214.608 173.037 214.628 172.964 214.648 172.892L214.703 172.686L214.703 172.686L214.707 172.674L214.707 172.671C214.708 172.67 214.708 172.669 214.708 172.668C214.71 172.662 214.711 172.657 214.713 172.652C214.806 172.306 214.896 171.973 214.993 171.618L215.142 171.605L215.145 171.605C215.153 171.604 215.161 171.604 215.168 171.603C215.273 171.594 215.377 171.585 215.481 171.577C215.567 171.569 215.653 171.562 215.739 171.555C216.032 171.531 216.324 171.507 216.615 171.484L216.639 171.482L218.029 160.741C218.029 160.741 218.46 152.716 218.46 152.211L218.461 151.293L217.493 150.959Z" fill="white"/>
<path d="M224.444 177.12C224.397 177.797 224.359 178.364 224.322 178.93L224.319 178.968C224.318 178.986 224.317 179.004 224.316 179.023C224.298 179.289 224.28 179.556 224.262 179.836L224.259 179.881H216.389C216.385 179.816 216.382 179.752 216.378 179.689C216.375 179.635 216.372 179.582 216.37 179.529C216.359 179.328 216.348 179.129 216.336 178.93C216.311 178.479 216.286 178.027 216.259 177.554L216.229 177.025H224.451L224.444 177.12Z" fill="white"/>
<path d="M235.627 184.67C236.261 185.401 236.363 186.907 236.152 187.947C234.968 193.864 233.739 199.78 232.279 205.64C231.081 210.416 228.229 213.747 224.311 216.058C224.082 216.192 223.85 216.324 223.614 216.452C222.581 217.012 221.48 217.508 220.322 217.946C220.078 218.038 219.809 218.063 219.512 218.09L219.511 218.09L219.511 218.09C219.379 218.103 219.243 218.116 219.1 218.135C218.675 218.135 218.318 218.088 217.903 217.992C217.54 217.908 217.134 217.788 216.6 217.629L216.364 217.559C216.239 217.489 216.113 217.422 215.987 217.358C215.959 217.344 215.931 217.33 215.904 217.316C215.878 217.303 215.853 217.291 215.827 217.278C215.721 217.226 215.614 217.174 215.507 217.123L215.506 217.122L215.421 217.081C214.605 216.687 213.812 216.285 213.27 215.439C213.037 215.074 212.85 214.626 212.728 214.061C212.687 213.874 212.654 213.674 212.628 213.46C213.301 213.527 213.959 213.594 214.608 213.659C214.749 213.673 214.89 213.687 215.031 213.701C215.071 213.705 215.111 213.709 215.151 213.713C215.198 213.718 215.245 213.722 215.292 213.727C215.396 213.737 215.5 213.748 215.605 213.758C215.963 213.794 216.319 213.829 216.673 213.864C217.533 213.949 218.383 214.033 219.234 214.115C218.492 213.457 217.704 213.035 216.891 212.758C216.44 212.604 215.982 212.495 215.519 212.415C215.36 212.387 215.201 212.363 215.041 212.341C214.774 212.305 214.505 212.277 214.236 212.254C213.803 212.216 213.369 212.191 212.936 212.165L212.935 212.165L212.934 212.165L212.763 212.155C212.002 212.11 211.247 212.061 210.509 211.94C210.082 211.87 209.661 211.776 209.249 211.645C207.789 209.719 207.999 208.123 209.241 206.636C209.425 206.416 209.631 206.199 209.858 205.983C209.934 205.911 210.013 205.838 210.094 205.766C211.544 205.577 213.017 205.548 214.494 205.524L214.649 205.521C214.794 205.519 214.938 205.517 215.083 205.514C216.172 205.496 217.261 205.469 218.342 205.372C219.471 205.271 220.591 205.094 221.692 204.771C220.673 204.405 219.632 204.24 218.577 204.178C217.448 204.112 216.302 204.164 215.147 204.217L215.146 204.217C215.098 204.219 215.049 204.221 215.001 204.224C214.798 204.233 214.595 204.242 214.392 204.25C212.892 204.312 211.377 204.331 209.866 204.052C209.692 204.02 209.517 203.983 209.343 203.943C208.348 203.711 207.355 203.337 206.368 202.748C206.599 201.944 206.818 201.177 207.029 200.437L207.03 200.435L207.03 200.433L207.031 200.431L207.036 200.414L207.037 200.408C207.038 200.405 207.039 200.401 207.04 200.398C207.17 199.942 207.298 199.497 207.423 199.059C207.458 198.937 207.492 198.817 207.527 198.696C208.547 198.631 209.522 198.566 210.467 198.504L210.469 198.504C211.195 198.456 211.903 198.41 212.598 198.364L212.598 198.364C213.041 198.336 213.479 198.307 213.914 198.28C214.151 198.265 214.387 198.25 214.622 198.235C215.429 198.185 216.227 198.137 217.026 198.092C217.95 198.041 218.876 197.993 219.801 197.948C220.937 197.892 222.073 197.839 223.209 197.785L223.964 197.75C224.475 197.726 224.986 197.702 225.497 197.677L225.661 197.669C225.659 197.575 225.657 197.482 225.656 197.389C225.653 197.201 225.65 197.015 225.641 196.825L225.619 196.821C225.455 196.793 225.291 196.759 225.127 196.724L225.126 196.724L225.125 196.724C224.725 196.639 224.322 196.553 223.92 196.567C222.626 196.614 221.333 196.673 220.04 196.734C219.808 196.745 219.577 196.756 219.346 196.767L219.282 196.77L219.269 196.771L219.269 196.771L219.268 196.771L219.268 196.771L219.266 196.771L219.264 196.771C218.495 196.808 217.727 196.844 216.958 196.879L216.956 196.879C216.151 196.915 215.347 196.949 214.542 196.978C214.299 196.987 214.055 196.995 213.811 197.003C213.396 197.017 212.98 197.029 212.564 197.039C212.016 197.053 211.462 197.097 210.908 197.142C209.731 197.236 208.553 197.331 207.424 197.131C207.081 197.07 206.744 196.983 206.412 196.86C205.956 196.691 205.511 196.455 205.082 196.132C204.529 192.879 205.181 191.139 207.405 190.515C207.71 190.429 208.045 190.365 208.41 190.32C208.745 190.279 209.105 190.255 209.492 190.247C210.749 190.219 212.007 190.201 213.265 190.189C213.547 190.186 213.83 190.183 214.112 190.181C215.777 190.168 217.443 190.162 219.108 190.157C219.109 190.157 219.11 190.157 219.111 190.157H219.114C219.121 190.157 219.128 190.157 219.135 190.157C219.868 190.155 220.601 190.153 221.334 190.15C222.885 190.144 224.436 190.134 225.987 190.115C226.515 190.11 227.04 189.963 227.563 189.816L227.564 189.816C227.772 189.758 227.981 189.699 228.189 189.65C228.192 189.649 228.196 189.648 228.199 189.648C228.2 189.647 228.201 189.647 228.202 189.647C228.208 189.645 228.214 189.644 228.22 189.643C228.222 189.642 228.224 189.642 228.226 189.641C228.226 189.641 228.227 189.641 228.227 189.641C228.228 189.641 228.229 189.641 228.23 189.64C228.231 189.64 228.232 189.64 228.232 189.64C228.237 189.639 228.242 189.638 228.246 189.637L228.247 189.636L228.248 189.636C228.255 189.635 228.263 189.633 228.27 189.631C228.273 189.631 228.276 189.63 228.279 189.629L228.279 189.629C228.275 189.595 228.271 189.561 228.267 189.527C228.239 189.29 228.211 189.053 228.189 188.817H214.026H208.41C208.284 188.691 208.166 188.568 208.055 188.446C206.026 186.197 206.678 184.403 208.609 182.27C209.923 182.063 211.25 181.88 212.587 181.734C212.914 181.698 213.242 181.665 213.571 181.634C213.897 181.603 214.224 181.574 214.552 181.549C215.162 181.501 215.775 181.462 216.389 181.434C218.579 181.335 220.791 181.371 223.013 181.605C223.428 181.649 223.843 181.7 224.259 181.758C224.29 181.762 224.322 181.767 224.354 181.771C224.386 181.776 224.419 181.78 224.451 181.785C224.797 181.835 225.142 181.89 225.488 181.951C226.37 182.105 227.252 182.294 228.136 182.522C228.679 182.662 229.223 182.817 229.767 182.987C229.777 182.991 229.788 182.994 229.798 182.997C229.813 183.002 229.829 183.007 229.844 183.012C229.845 183.012 229.847 183.013 229.848 183.013L229.849 183.013C229.852 183.014 229.855 183.015 229.858 183.016C229.86 183.017 229.861 183.017 229.863 183.018C229.868 183.019 229.872 183.021 229.877 183.022C229.891 183.027 229.906 183.031 229.92 183.036C229.943 183.043 229.965 183.05 229.988 183.057C230.045 182.786 230.103 182.516 230.16 182.251C228.898 181.59 227.642 180.929 226.168 180.152L226.038 180.083L226.045 179.998C226.086 179.433 226.13 178.87 226.174 178.303L226.203 177.922L226.203 177.918L226.204 177.917L226.228 177.595C226.233 177.539 226.237 177.482 226.242 177.425C226.243 177.412 226.244 177.398 226.245 177.385C226.245 177.375 226.246 177.366 226.247 177.356C226.252 177.288 226.258 177.219 226.263 177.15C226.266 177.105 226.27 177.06 226.273 177.016C226.278 176.949 226.283 176.882 226.289 176.815L226.301 176.649C226.307 176.568 226.314 176.486 226.32 176.404C226.354 176.407 226.388 176.41 226.422 176.413C226.476 176.417 226.528 176.42 226.579 176.423C226.594 176.424 226.609 176.424 226.624 176.425C226.788 176.433 226.939 176.434 227.074 176.436H227.074C227.374 176.439 227.6 176.441 227.745 176.51C227.748 176.511 227.751 176.513 227.754 176.514C227.756 176.515 227.758 176.516 227.759 176.517C227.76 176.517 227.761 176.518 227.762 176.518C227.764 176.519 227.766 176.52 227.768 176.522C227.794 176.536 227.817 176.553 227.837 176.574C227.96 176.698 228.084 176.822 228.208 176.945C228.544 177.281 228.88 177.617 229.217 177.952L229.221 177.957C231.415 180.143 233.613 182.334 235.627 184.67Z" fill="white"/>
<path fill-rule="evenodd" clip-rule="evenodd" d="M228.286 173.821L228.285 173.836C228.283 173.865 228.282 173.895 228.28 173.924C228.282 173.889 228.284 173.855 228.286 173.821ZM229.252 128.837C229.252 128.838 229.252 128.839 229.252 128.84L229.252 128.837Z" fill="#D9D9D9"/>
<path d="M100.51 183.247H93.0427L93.0426 183.246H93.0359L93.0279 183.126C93.0117 182.883 92.9963 182.648 92.9809 182.415L92.9779 182.368C92.9431 181.839 92.9084 181.311 92.8653 180.687L92.8536 180.518H100.655L100.655 180.519H100.662L100.634 181.023C100.59 181.791 100.55 182.498 100.51 183.247Z" fill="white"/>
<path d="M104.439 151.876C104.712 150.074 104.54 147.213 104.54 147.213C104.54 147.213 104.474 143.278 104.233 141.2C103.519 135.024 102.912 130.448 100.993 123.813C99.9577 120.235 99.6661 119.45 97.8659 114.802C97.4118 113.63 97.1169 113.052 96.8781 113.012C96.6123 112.958 96.4164 113.565 96.1503 114.76C96.1207 114.893 96.0902 115.033 96.0587 115.18C96.0516 115.213 96.0422 115.263 96.0307 115.329C95.7536 116.928 94.2584 128.027 94.2584 142.782C94.2584 159.608 94.0123 164.171 93.7758 168.556C93.7119 169.741 93.6487 170.912 93.5913 172.31L93.4379 175.186L93.4056 175.189C92.782 175.262 92.1553 175.362 91.5236 175.496C91.3335 175.537 91.1429 175.58 90.9518 175.627C90.9845 176.269 91.0107 176.807 91.0369 177.346L91.037 177.346L91.0371 177.348L91.0372 177.351C91.0479 177.571 91.0586 177.791 91.0698 178.018L91.084 178.307L91.0915 178.458C91.322 178.504 91.5517 178.548 91.7807 178.59C91.807 178.595 91.8332 178.599 91.8595 178.604C95.3898 179.24 98.77 179.316 102.637 178.326C102.419 177.525 102.259 176.929 102.11 176.372L102.109 176.371C102.017 176.029 101.93 175.702 101.835 175.351L101.828 175.351L101.828 175.35L101.685 175.338L101.678 175.337C101.051 175.284 100.429 175.231 99.8112 175.185L99.7726 175.182L99.569 172.448C99.5221 171.472 99.4774 170.573 99.4361 169.742C99.121 163.409 99.0059 161.096 99.6391 159.58C99.828 159.127 100.324 158.709 100.886 158.234C101.395 157.805 101.958 157.329 102.397 156.741C102.454 156.665 102.509 156.592 102.562 156.52C103.159 155.724 103.553 155.199 103.929 154.207C104.209 153.467 104.281 152.968 104.382 152.27L104.382 152.269C104.4 152.145 104.418 152.015 104.439 151.876Z" fill="white"/>
<path d="M87.4425 185.512C88.6755 184.862 89.9024 184.212 91.354 183.441C91.3035 182.751 91.2509 182.068 91.1974 181.373L91.1972 181.371L91.1971 181.369L91.1969 181.367L91.1834 181.191C91.1514 180.775 91.1191 180.354 91.0867 179.925L91.08 179.925C90.8101 179.951 90.5728 179.953 90.3708 179.955C90.0165 179.959 89.7707 179.961 89.6473 180.087C89.2114 180.528 88.7737 180.967 88.3359 181.407L88.3338 181.409L88.3335 181.409C86.8526 182.896 85.3697 184.384 83.9488 185.924L83.9057 185.971C83.3446 186.579 82.7932 187.196 82.2557 187.825C82.0712 188.039 81.9342 188.323 81.8387 188.642L81.838 188.62C81.616 189.346 81.6105 190.259 81.7508 190.954C82.5769 195.111 83.4259 199.268 84.368 203.403C84.59 204.378 84.8172 205.352 85.0505 206.324C85.1737 206.837 85.2986 207.35 85.4253 207.862C85.6602 208.805 85.9619 209.689 86.3257 210.517C87.6252 213.476 89.7161 215.729 92.3746 217.44C92.5537 217.555 92.7355 217.668 92.9198 217.778C93.197 217.944 93.4799 218.105 93.7683 218.26C94.6264 218.722 95.5327 219.137 96.4811 219.51C96.5773 219.548 96.6739 219.585 96.7709 219.622C96.8679 219.659 96.9689 219.684 97.0743 219.704C97.1302 219.714 97.1872 219.723 97.2455 219.73C97.3181 219.739 97.3927 219.747 97.4694 219.754C97.4949 219.757 97.5206 219.759 97.5465 219.762L97.547 219.762C97.6718 219.773 97.802 219.786 97.9378 219.804C98.5015 219.804 98.9405 219.716 99.5783 219.536C100.229 218.217 100.926 216.893 101.657 215.579L101.321 215.613C100.873 215.658 100.429 215.702 99.9882 215.746C99.2589 215.819 98.5362 215.89 97.8127 215.96C99.2323 214.695 100.825 214.345 102.443 214.194C103.675 212.058 104.987 209.961 106.326 207.964C105.538 207.867 104.743 207.818 103.945 207.79C103.387 207.77 102.827 207.76 102.266 207.751L102.154 207.749L102.149 207.749C100.567 207.723 98.9808 207.697 97.4211 207.459C97.2641 207.435 97.1075 207.409 96.9511 207.381L96.9305 207.377C96.4432 207.287 95.9587 207.175 95.478 207.033C96.0083 206.841 96.5445 206.707 97.0858 206.615C97.1832 206.599 97.2808 206.584 97.3785 206.57C98.7881 206.37 100.231 206.436 101.689 206.504C102.352 206.534 103.019 206.565 103.687 206.571C104.979 206.582 106.277 206.501 107.571 206.146C108.227 205.208 108.886 204.298 109.542 203.424L109.39 202.887L109.388 202.88C109.228 202.315 109.072 201.766 108.919 201.228L108.912 201.228L108.912 201.227C107.944 201.164 107.019 201.102 106.122 201.043L106.12 201.043L106.119 201.043L106.076 201.04C105.403 200.995 104.746 200.952 104.101 200.91C102.663 200.815 101.281 200.728 99.8988 200.649C99.7154 200.639 99.5319 200.629 99.3484 200.619C99.0932 200.605 98.8381 200.592 98.5828 200.578C97.0672 200.499 95.5499 200.428 94.0322 200.356L94.0285 200.356L94.0264 200.356L93.3202 200.322L93.3159 200.322C92.8486 200.3 92.3813 200.278 91.914 200.255L91.8595 200.253L91.7123 200.246C91.7143 200.156 91.7157 200.067 91.717 199.978C91.7197 199.799 91.7224 199.621 91.7305 199.44C91.893 199.412 92.0561 199.378 92.2195 199.343L92.2203 199.343C92.6003 199.262 92.9823 199.18 93.3644 199.193C94.8352 199.247 96.306 199.318 97.7772 199.388C99.8965 199.49 102.017 199.591 104.139 199.644C104.659 199.657 105.185 199.7 105.711 199.742L105.711 199.742C107.631 199.898 109.556 200.053 111.239 198.777C111.805 195.423 111.04 193.752 108.506 193.288C108.367 193.262 108.223 193.24 108.074 193.222C107.756 193.183 107.414 193.16 107.048 193.152C104.004 193.085 100.961 193.076 97.9173 193.067C96.8983 193.064 95.8793 193.06 94.8603 193.055L94.8318 193.055C93.6864 193.049 92.5411 193.04 91.3957 193.026C91.199 193.024 91.0028 193.001 90.8069 192.966C90.5063 192.911 90.2065 192.827 89.907 192.742C89.6806 192.678 89.4544 192.614 89.2282 192.563C89.2586 192.304 89.2889 192.045 89.3132 191.787H108.081C110.407 189.468 109.824 187.68 107.893 185.53C107.891 185.53 107.889 185.53 107.888 185.53L107.886 185.529C106.052 185.239 104.193 184.996 102.316 184.846C101.713 184.797 101.109 184.759 100.503 184.731C98.0365 184.618 95.5424 184.687 93.0359 185.04C92.8078 185.072 92.5797 185.106 92.3515 185.143C92.2703 185.156 92.189 185.17 92.1078 185.183C91.2146 185.334 90.3201 185.522 89.4249 185.753C89.025 185.856 88.6249 185.967 88.2247 186.087C88.0853 186.129 87.946 186.172 87.8066 186.216C87.7397 186.237 87.6728 186.258 87.6059 186.28C87.5514 186.022 87.497 185.764 87.4425 185.512Z" fill="white"/>
<path d="M107.285 213.602C108.943 211.398 108.33 209.646 106.483 207.984L106.477 207.983L106.477 207.983C106.426 207.976 106.376 207.97 106.326 207.964C104.987 209.961 103.675 212.058 102.443 214.194C102.89 214.152 103.34 214.126 103.788 214.099C104.983 214.029 106.169 213.959 107.285 213.602Z" fill="white"/>
<path fill-rule="evenodd" clip-rule="evenodd" d="M213.571 181.634L214.026 188.817L228.22 189.643L228.202 189.647L228.199 189.648L228.189 189.65C227.981 189.699 227.772 189.758 227.564 189.816L227.563 189.816C227.04 189.963 226.515 190.11 225.987 190.115C224.436 190.134 222.885 190.144 221.334 190.15C220.601 190.153 219.868 190.155 219.135 190.157L219.114 190.157H219.111H219.108C217.443 190.162 215.777 190.168 214.112 190.181L214.542 196.978C215.347 196.949 216.151 196.915 216.956 196.879L216.958 196.879C217.727 196.844 218.495 196.808 219.264 196.771L219.266 196.771L219.268 196.771L219.268 196.771L219.269 196.771L219.269 196.771L219.282 196.77L219.346 196.767C219.577 196.756 219.808 196.745 220.04 196.734C221.333 196.673 222.626 196.614 223.92 196.567C224.322 196.553 224.725 196.639 225.125 196.724L225.126 196.724L225.127 196.724C225.291 196.759 225.455 196.793 225.619 196.821L225.641 196.825C225.65 197.015 225.653 197.201 225.656 197.389C225.657 197.482 225.659 197.575 225.661 197.669L225.497 197.677C224.986 197.702 224.475 197.726 223.964 197.75L223.209 197.785C222.073 197.839 220.937 197.892 219.801 197.948C218.876 197.993 217.95 198.041 217.026 198.092C216.227 198.137 215.429 198.185 214.622 198.235L215.001 204.224L215.146 204.217L215.147 204.217C216.302 204.164 217.448 204.112 218.577 204.178C219.632 204.24 220.673 204.405 221.692 204.771C220.591 205.094 219.471 205.271 218.342 205.372C217.261 205.469 216.172 205.496 215.083 205.514L215.519 212.415C215.982 212.495 216.44 212.604 216.891 212.758C217.704 213.035 218.492 213.457 219.234 214.115C218.383 214.033 217.533 213.949 216.673 213.864C216.319 213.829 215.963 213.794 215.605 213.758L215.635 214.233C215.521 214.063 215.407 213.894 215.292 213.727L215.151 213.713L215.031 213.701L214.608 213.659C213.959 213.594 213.301 213.527 212.628 213.46C212.654 213.674 212.687 213.874 212.728 214.061C212.85 214.626 213.037 215.074 213.27 215.439C213.812 216.285 214.605 216.687 215.421 217.081L215.506 217.122L215.507 217.123C215.614 217.174 215.721 217.226 215.827 217.278C215.853 217.291 215.878 217.303 215.904 217.316C215.931 217.33 215.959 217.344 215.987 217.358C216.113 217.422 216.239 217.489 216.364 217.559L216.6 217.629C217.134 217.788 217.54 217.908 217.903 217.992C218.318 218.088 218.675 218.135 219.1 218.135C219.243 218.116 219.379 218.103 219.511 218.09L219.511 218.09L219.512 218.09C219.809 218.063 220.078 218.038 220.322 217.946C221.48 217.508 222.581 217.012 223.614 216.452C223.85 216.324 224.082 216.192 224.311 216.058C228.229 213.747 231.081 210.416 232.279 205.64C233.739 199.78 234.968 193.864 236.152 187.947C236.363 186.907 236.261 185.401 235.627 184.67C233.613 182.334 231.415 180.143 229.221 177.957L229.217 177.952C228.88 177.617 228.544 177.281 228.208 176.945C228.084 176.822 227.96 176.698 227.837 176.574C227.817 176.553 227.794 176.536 227.768 176.522L227.762 176.518L227.759 176.517L227.754 176.514C227.751 176.513 227.748 176.511 227.745 176.51C227.6 176.441 227.374 176.439 227.074 176.436H227.074C226.939 176.434 226.788 176.433 226.624 176.425C226.609 176.424 226.594 176.424 226.579 176.423C226.528 176.42 226.476 176.417 226.422 176.413C226.388 176.41 226.354 176.407 226.32 176.404L226.301 176.649L226.289 176.815L226.273 177.016L226.263 177.15L226.247 177.356L226.245 177.385L226.242 177.425L226.228 177.595L226.204 177.917L226.203 177.918L226.203 177.922L226.174 178.303C226.13 178.87 226.086 179.433 226.045 179.998L226.038 180.083L226.168 180.152C227.642 180.929 228.898 181.59 230.16 182.251C230.103 182.516 230.045 182.786 229.988 183.057C229.965 183.05 229.943 183.043 229.92 183.036L229.863 183.018L229.858 183.016L229.849 183.013L229.848 183.013L229.844 183.012L229.798 182.997L229.767 182.987C229.223 182.817 228.679 182.662 228.136 182.522C227.252 182.294 226.37 182.105 225.488 181.951C225.142 181.89 224.797 181.835 224.451 181.785C224.419 181.78 224.386 181.776 224.354 181.771C224.322 181.767 224.29 181.762 224.259 181.758C223.843 181.7 223.428 181.649 223.013 181.605C220.791 181.371 218.579 181.335 216.389 181.434C215.775 181.462 215.162 181.501 214.552 181.549C214.224 181.574 213.897 181.603 213.571 181.634ZM214.026 188.817L228.23 189.64L228.232 189.64L228.246 189.637L228.247 189.636L228.248 189.636L228.27 189.631L228.279 189.629L228.279 189.629L228.267 189.527C228.239 189.29 228.211 189.053 228.189 188.817H214.026ZM209.241 206.636C211.037 208.345 212.699 210.199 214.236 212.254C213.803 212.216 213.369 212.191 212.936 212.165L212.935 212.165L212.934 212.165L212.763 212.155C212.002 212.11 211.247 212.061 210.509 211.94C210.082 211.87 209.661 211.776 209.249 211.645C207.789 209.719 207.999 208.123 209.241 206.636ZM213.16 148.219C214.426 149.475 215.913 150.415 217.493 150.959L218.461 151.293L218.46 152.211C218.46 152.716 218.029 160.741 218.029 160.741L216.639 171.482L216.615 171.484C216.324 171.507 216.032 171.531 215.739 171.555C215.653 171.562 215.567 171.569 215.481 171.577L215.168 171.603L215.145 171.605L226.345 174.117L226.365 173.715L226.372 173.571C226.397 173.052 226.423 172.526 226.455 171.908C225.964 171.788 225.476 171.689 224.991 171.608L224.978 171.606C224.829 171.581 224.68 171.558 224.532 171.536L224.514 171.533L223.118 160.741C223.118 160.741 222.558 152.743 222.557 152.238L222.557 151.319L223.542 150.986C225.151 150.441 226.664 149.501 227.953 148.244C229.904 146.341 229.913 146.309 229.902 141.035C229.9 139.962 229.879 138.767 229.848 137.654C229.807 136.245 229.748 134.967 229.684 134.237C229.609 133.385 229.463 131.523 229.288 129.288L229.252 128.84L229.252 128.837L229.252 128.836L229.252 128.833L229.252 128.832C228.86 123.835 228.344 117.26 228.158 115.822L227.967 114.349H226.193V142.1H224.044V114.349H221.565V142.1L220.509 142.079H219.435V114.342H217V142.079H214.889V114.342H213.146L212.958 115.815C212.84 116.742 212.588 119.807 212.32 123.208C212.172 125.076 212.021 127.045 211.884 128.817L211.884 128.817L211.884 128.818L211.883 128.832C211.696 131.26 211.537 133.314 211.459 134.221C211.346 135.526 211.25 138.584 211.245 141.015C211.234 146.285 211.243 146.318 213.16 148.219ZM224.322 178.93C224.359 178.364 224.397 177.797 224.444 177.12L224.451 177.025H216.229L216.259 177.554C216.286 178.027 216.311 178.479 216.336 178.93C216.348 179.129 216.359 179.328 216.37 179.529L216.378 179.689L216.389 179.881H224.259L224.262 179.836C224.28 179.556 224.298 179.289 224.316 179.023L224.319 178.968L224.322 178.93ZM109.542 203.424C108.886 204.298 108.227 205.208 107.571 206.146C108.389 205.922 109.206 205.588 110.018 205.1C109.854 204.523 109.696 203.965 109.542 203.424ZM101.657 215.579C100.926 216.893 100.229 218.217 99.5783 219.536C99.7949 219.475 100.034 219.403 100.31 219.321L100.323 219.317L100.42 219.288L100.534 219.254C100.801 219.102 101.075 218.969 101.348 218.836L101.351 218.835L101.353 218.834C101.419 218.802 101.484 218.77 101.549 218.738C101.924 218.554 102.291 218.364 102.625 218.118C103.338 217.595 103.902 216.822 104.078 215.336L104.071 215.337L104.071 215.335C103.408 215.402 102.759 215.468 102.12 215.533L101.858 215.559L101.657 215.579Z" fill="white"/>
<path d="M186.474 221.496C184.889 222.466 176.619 218.342 176.619 218.342C176.619 218.342 158.333 209.849 149.102 205.561L147.658 204.89C144.422 203.387 141.973 202.196 139.516 201.002L139.516 201.002L139.516 201.002L139.515 201.001L139.515 201.001C137.039 199.797 134.555 198.59 131.25 197.055C124.961 199.417 122.935 198.309 120.976 197.238C119.626 196.5 118.307 195.779 115.646 196.224C114.845 197.026 113.998 197.943 113.123 198.956C113.116 199.001 113.109 199.047 113.101 199.092L112.976 199.834L112.377 200.288C112.111 200.49 111.841 200.665 111.57 200.816C111.373 201.06 111.175 201.307 110.977 201.558L110.984 201.586L111.101 201.998L111.103 202.004L111.107 202.018L111.207 202.373L111.209 202.377C111.408 203.081 111.614 203.808 111.834 204.578L112.232 205.976L110.988 206.724C110.765 206.859 110.541 206.983 110.318 207.098L110.316 207.099C110.298 207.108 110.281 207.117 110.263 207.126L110.249 207.134C109.902 207.309 109.556 207.462 109.211 207.596C109.09 207.643 108.968 207.688 108.847 207.731C108.975 207.892 109.097 208.058 109.211 208.23C109.608 208.827 109.911 209.492 110.053 210.23C110.278 211.406 110.056 212.542 109.505 213.616C109.343 213.931 109.152 214.241 108.936 214.545L108.928 214.556L108.927 214.558C108.883 214.619 108.838 214.681 108.792 214.742L108.429 215.224L107.855 215.408C107.286 215.59 106.718 215.708 106.169 215.789C106.138 215.794 106.108 215.798 106.077 215.802C106.053 215.806 106.03 215.809 106.007 215.812L105.999 215.813L105.977 215.816L105.953 215.819L105.918 215.824C105.905 215.907 105.891 215.99 105.877 216.07C105.859 216.169 105.839 216.265 105.818 216.359C105.7 216.891 105.532 217.365 105.32 217.788C104.965 218.495 104.486 219.059 103.908 219.517C103.775 219.623 103.641 219.719 103.507 219.809C103.163 220.038 102.826 220.216 102.537 220.361L102.506 220.376C102.358 220.45 102.229 220.513 102.112 220.57L102.11 220.57L102.11 220.57C101.867 220.688 101.675 220.781 101.465 220.901L101.276 221.009L101.068 221.071C100.972 221.1 100.879 221.128 100.787 221.155L100.78 221.157L100.779 221.157L100.766 221.161L100.759 221.164C100.619 221.206 100.484 221.246 100.351 221.285C99.7349 221.466 99.1805 221.609 98.5641 221.669C97.0203 224.713 124.03 211.579 152.111 228.558C180.192 245.538 221.817 232.543 218.961 220.038C217.939 220.018 217.136 219.779 216.115 219.474L215.964 219.429L215.909 219.413L215.813 219.384L215.601 219.321L215.408 219.212C215.185 219.086 214.981 218.987 214.723 218.863L214.722 218.863C214.675 218.84 214.625 218.816 214.573 218.791C214.491 218.751 214.403 218.708 214.308 218.661C213.88 218.45 213.35 218.17 212.843 217.77C211.756 216.915 211.006 215.699 210.746 213.898C210.074 213.814 209.368 213.683 208.661 213.458L208.077 213.273L207.71 212.788C206.614 211.341 206.08 209.772 206.397 208.135C206.594 207.115 207.093 206.23 207.726 205.463C206.946 205.2 206.159 204.847 205.374 204.378L204.116 203.627L204.412 202.594C197.888 197.757 189.898 193.937 180.154 189.279L179.727 189.074C182.129 190.223 182.938 191.461 184.053 193.168L184.053 193.168L184.054 193.169C184.304 193.552 184.57 193.96 184.873 194.395C187.031 199.549 188.028 202.375 188.028 210.024L188.022 210.186L188.022 210.187L188.022 210.188C187.986 211.251 188.05 212.126 188.632 213.183C189.043 213.928 189.415 214.86 189.463 216.009C189.563 218.448 188.06 220.526 186.474 221.496Z" fill="white"/>
<path fill-rule="evenodd" clip-rule="evenodd" d="M233.697 218.668C249.212 201.975 258.998 180.392 257.284 154.218C257.284 125.566 247.65 99.5702 224.395 80.7991C206.545 66.3909 181.263 59.7799 156.395 60.4706C142.065 60.4706 126.805 64.2311 114.258 69.2204C97.0399 76.0669 83.9166 85.6511 74.1932 99.8446C63.6958 115.168 60.3776 132.171 60.3779 152.343C60.3784 178.132 67.9444 200.639 84.555 216.585C102.778 235.391 131.624 250.56 161.275 250.56C190.602 250.56 216.129 237.57 233.697 218.668ZM96.1633 90.1002C79.4029 105.587 73.5728 128.558 73.5728 149.566C73.5728 163.514 75.6519 175.676 84.555 188.724C97.9099 208.296 131.067 223.65 156.294 223.65C176.736 223.65 199.918 217.727 216.093 204.05C234.324 188.633 244.331 164.173 244.331 142.59C244.331 120.894 235.435 102.531 217.754 88.7714C198.485 73.1573 179.274 67.8419 158.952 67.8419C147.527 67.8419 132.985 70.4166 121.079 74.8184C111.043 78.5289 103.36 83.4502 96.1633 90.1002Z" fill="#F86F0E"/>
<path d="M82.4469 43.7704C81.1018 41.1267 75.3654 37.089 75.3654 37.089C75.3654 37.089 85.4197 29.2547 99.753 34.4617C109.274 37.9204 113.594 56.9373 113.594 56.9373C113.594 56.9373 108.614 51.8045 105.371 52.5465C102.128 53.2884 101.789 52.953 99.5017 52.7822C96.7049 52.5734 95.1016 52.2612 92.4877 51.2507C87.9229 49.486 82.4469 43.7704 82.4469 43.7704Z" fill="#9BAB49"/>
<path d="M86.8599 43.3898C74.9517 42.9884 69.4222 56.7503 69.4222 56.7503C69.4222 56.7503 72.9318 57.1972 75.5003 58.3002C81.6427 60.9379 82.8228 61.1303 89.3469 59.9107C94.1141 59.0194 105.191 55.4884 109.173 55.3753C111.007 55.3232 113.592 56.9381 113.592 56.9381C113.592 56.9381 102.303 43.9105 86.8599 43.3898Z" fill="#C1BF0A"/>
<path d="M100.048 111.227C98.704 109.058 98.5905 107.152 99.1339 105.233C103.206 90.9456 109.835 78.1995 122.142 69.254C138.449 57.3983 156.334 54.6017 175.526 60.9359C178.141 61.7964 180.775 62.8421 182.918 65.1547C182.447 65.7522 182.035 66.2721 181.461 66.9832C169.775 59.914 157.289 59.0356 144.373 62.0055C140.038 63.0035 135.482 63.7265 132.15 67.5091C132.305 68.6684 132.454 69.8336 132.586 70.8256C128.919 73.5744 125.336 76.2694 121.736 78.9704C118.696 77.0164 117.49 77.1 114.892 79.7472C110.372 84.3485 107.267 89.858 105.117 95.8875C103.368 100.799 101.833 105.795 100.048 111.227Z" fill="white"/>
<path d="M192.878 127.185C192.876 127.204 192.875 127.223 192.874 127.242C192.874 127.243 192.874 127.244 192.873 127.245C192.774 128.598 192.691 129.722 192.585 131.258C192.109 131.159 191.651 131.063 191.195 130.968C189.803 130.678 188.431 130.391 186.61 130.014C186.557 130.003 186.502 129.991 186.448 129.98C186.462 129.971 186.475 129.961 186.489 129.952C186.529 129.924 186.569 129.897 186.608 129.87C188.927 128.293 190.66 127.588 192.878 127.185Z" fill="white"/>
<path fill-rule="evenodd" clip-rule="evenodd" d="M185.824 219.838C184.447 220.667 175.255 216.328 175.255 216.328C175.255 216.328 159.172 208.852 151.054 205.077L150.929 205.019C144.835 202.186 138.706 199.337 132.53 196.465C131.825 196.137 131.527 195.294 131.873 194.601L132.07 194.195C132.404 193.525 133.21 193.245 133.884 193.555C140.561 196.64 147.191 199.702 153.83 202.768L154.077 202.882L154.109 202.897C160.866 206.018 167.633 209.142 174.467 212.3C174.441 210.864 173.519 210.466 172.733 210.126C172.617 210.076 172.503 210.027 172.396 209.976C167.757 207.738 163.092 205.568 158.425 203.398L158.422 203.396L157.512 202.973C152.645 200.706 147.778 198.446 142.917 196.189L142.794 196.132C139.827 194.754 136.863 193.378 133.902 192.002C133.228 191.691 132.917 190.896 133.21 190.215C133.46 189.638 133.716 189.068 133.97 188.501C135.778 184.476 137.495 180.653 136.098 176.316C135.937 175.82 136.033 175.27 136.391 174.894C136.619 174.657 136.845 174.426 137.069 174.197C137.999 173.247 138.88 172.346 139.626 171.344C139.815 171.092 140.01 170.838 140.207 170.582C141.294 169.167 142.427 167.693 142.836 166.074C143.113 164.971 143.407 163.87 143.702 162.768L143.702 162.767L143.703 162.767C144.973 158.02 146.246 153.26 146.101 148.255C146.096 148.065 146.086 147.875 146.075 147.684L146.075 147.683C146.038 146.977 146 146.269 146.22 145.62C146.525 144.729 147.665 144.472 148.387 145.076L150.636 146.956L151.011 147.269L153.388 149.256L155.393 150.932C155.608 151.111 155.763 151.344 155.841 151.613C156.73 154.804 158.365 158.658 162.549 160.833C162.005 159.927 161.372 159.069 160.737 158.207C159.305 156.263 157.86 154.302 157.392 151.739C157.285 151.147 157.542 150.538 158.073 150.245C158.125 150.216 158.177 150.187 158.229 150.158C159.818 149.281 161.558 148.321 162.101 145.417C160.735 146.6 159.798 147.406 158.908 148.171C158.711 148.345 158.467 148.458 158.21 148.5C154.767 149.026 152.576 147.962 150.177 144.359C149.676 143.612 150.016 142.578 150.869 142.285L152.326 141.772C152.737 141.628 153.203 141.694 153.567 141.939C154.623 142.668 155.614 143.343 156.611 144.018L157.118 143.612L155.799 141.742C155.447 141.24 155.453 140.552 155.853 140.086C157.971 137.595 160.645 136.149 164.118 136.035C167.359 135.927 169.818 134.726 171.483 131.577C172.417 129.814 173.998 128.362 175.537 126.949C175.808 126.7 176.077 126.453 176.341 126.205C177.941 124.707 179.626 123.3 181.31 121.893L181.311 121.892C182.038 121.284 182.765 120.677 183.485 120.062C183.416 119.934 183.346 119.807 183.276 119.68C183.225 119.588 183.175 119.497 183.125 119.405C183.106 119.369 183.086 119.333 183.067 119.298L183.097 119.289C188.858 117.649 194.62 116.008 200.428 114.356C201.24 114.123 202.075 114.679 202.183 115.515C202.348 116.863 202.503 118.189 202.656 119.499L202.657 119.506L202.657 119.506C203.128 123.538 203.58 127.412 204.26 131.249C204.696 133.714 205.538 136.084 206.37 138.424C207.312 141.075 208.24 143.688 208.551 146.361C208.587 146.725 208.491 147.102 208.252 147.377C206.844 149.016 205.327 148.684 203.904 148.374L203.903 148.373C203.734 148.337 203.566 148.3 203.4 148.267C202.917 148.171 202.416 148.339 202.087 148.703C201.067 149.826 201.156 151.129 201.658 152.504C202.177 153.956 201.956 155.139 200.303 156.113C199.332 156.024 198.328 155.933 197.304 155.84L197.213 155.832L197.188 155.83L197.156 155.827C195.462 155.673 193.714 155.515 191.966 155.354C193.27 156.8 194.871 156.927 196.456 157.053C196.829 157.082 197.202 157.112 197.57 157.158C198.709 157.308 199.736 157.523 200.291 158.36C200.792 159.112 200.321 160.152 199.444 160.379L198.715 160.57C198.041 160.744 197.605 161.401 197.695 162.094C197.745 162.482 197.807 162.869 197.868 163.257C198.227 165.527 198.589 167.819 196.835 170.233C196.609 170.544 196.251 170.729 195.869 170.765C194.961 170.845 193.997 170.931 192.998 171.02L192.991 171.02C191.379 171.164 189.677 171.316 187.973 171.464C187.17 171.53 186.36 171.563 185.55 171.595C183.799 171.666 182.048 171.737 180.376 172.145C176.353 173.113 173.948 175.838 173.268 180.039C172.211 186.552 172.354 193.059 173.041 199.596C173.878 198.476 173.83 197.234 173.78 195.931C173.765 195.552 173.75 195.168 173.757 194.78C173.781 193.669 175.082 193.017 175.953 193.705C180.261 197.118 180.59 202.215 180.945 207.72C180.99 208.43 181.036 209.147 181.092 209.868C183.64 202.752 180.799 195.187 174.67 191.105C174.288 190.848 174.043 190.424 174.043 189.958V188.351C174.216 188.338 174.372 188.318 174.515 188.3C174.797 188.263 175.027 188.233 175.237 188.285C179.08 189.241 181.617 191.673 183.079 195.312C185.06 200.242 186.021 205.357 185.824 210.675C185.823 210.723 185.821 210.77 185.82 210.818L185.82 210.819L185.82 210.82C185.766 212.416 187.343 214.085 187.686 215.551C188.03 217.017 187.202 219.008 185.824 219.838ZM195.994 148.219C195.397 148.1 194.956 147.592 194.896 146.988C194.627 144.204 195.087 143.773 198.316 142.04C198.077 142.416 197.857 142.764 197.649 143.092L197.642 143.102C197.19 143.816 196.793 144.442 196.394 145.07C196.024 145.65 196.143 146.409 196.662 146.857L198.011 148.01C197.981 148.109 197.953 148.207 197.925 148.306C197.896 148.404 197.868 148.503 197.838 148.602L195.994 148.219ZM182.822 214.559C182.614 214.362 182.357 214.23 182.076 214.189C181.528 214.109 180.966 214.026 180.395 213.942L180.307 213.929L180.295 213.927C179.365 213.791 178.414 213.651 177.463 213.513C177.463 213.28 177.469 213.053 177.475 212.82V212.819L177.475 212.802C183.019 212.294 184.267 212.88 185.377 217.003C184.91 216.555 184.498 216.162 184.112 215.794L184.108 215.79C183.661 215.363 183.248 214.969 182.822 214.559ZM194.872 132.33C192.019 132.754 189.31 132.163 186.63 131.332C183.95 130.502 184.145 129.87 184.145 129.87C184.145 129.87 185.474 128.735 186.63 128.083C187.786 127.431 188.972 127.092 190.198 126.655C192.531 125.823 194.954 124.959 197.552 124.03C194.465 122.512 192.108 123.629 189.794 124.725C188.336 125.416 186.895 126.098 185.299 126.11C190.08 121.676 194.574 120.732 199.229 123.265C200.106 123.743 200.261 125.01 199.444 125.578C198.329 126.352 197.83 127.619 197.321 128.913C196.895 129.995 196.461 131.095 195.654 131.942C195.451 132.157 195.164 132.288 194.872 132.33Z" fill="white"/>
<path d="M97.7388 105.869C97.3267 105.129 97.1595 104.8 96.9565 104.49C96.7713 104.21 96.5504 103.959 95.8875 103.106C95.0037 106.424 94.8935 106.598 94.1649 109.367C91.2396 111.949 88.8577 114.057 86.5459 116.09C89.0581 103.242 93.7272 86.0936 107.198 70.3457C120.669 54.5978 142.075 49.3331 161.499 50.7828C174.499 51.753 186.396 56.2817 193.232 61.1549C190.222 61.8067 187.112 62.4704 183.297 63.2896C183.297 63.2896 174.238 57.1263 161.499 56.4234C140.451 55.2621 126.343 60.9359 113.712 73.6747C103.261 84.2137 97.7388 105.869 97.7388 105.869Z" fill="white"/>
<path d="M164.883 66.3628C171.909 67.098 176.961 70.5831 182.293 72.7709C185.444 79.1513 180.453 84.8755 171.979 91.1741C155.191 103.652 138.213 114.612 121.587 125.882C112.125 121.311 107.685 113.579 108.829 103.622C109.085 101.398 109.542 100.194 110.232 98.0642C112.443 91.2351 117.485 85.4711 121.736 81.1421C126.799 76.6628 129.379 74.478 135.082 71.5198C137.835 70.0916 139.433 69.3592 142.371 68.3677C144.78 67.5547 146.17 67.1892 148.667 66.7086C154.887 65.5111 157.857 65.6275 164.883 66.3628Z" fill="white"/>
<path d="M124.976 131.245C128.787 128.258 131.272 126.599 136.057 123.335L136.002 123.631C133.883 135.048 131.829 146.11 127.965 157.278C124.848 156.064 122.077 154.982 119.169 153.852C123.32 146.508 126.558 140.077 124.976 131.245Z" fill="white"/>
<path d="M157.012 130.536C155.114 127.832 153.604 125.29 151.7 123.094C150.382 121.581 148.669 120.211 146.855 119.368C143.734 117.914 141.645 118.997 140.869 122.371C139.562 128.071 138.542 133.844 137.313 139.569C135.857 146.364 134.329 153.142 132.777 159.919C132.455 161.319 131.906 162.671 131.375 164.316C125.348 163.389 120.001 161.403 114.427 157.694C115.728 156.641 116.665 155.894 117.787 154.99C121.266 156.229 124.769 157.479 128.63 158.855C133.416 146.221 135.242 133.341 138.094 119.888C134.088 122.784 133.372 123.335 130.856 124.997C128.636 126.462 126.499 128.053 124.124 129.734C123.426 128.711 122.913 127.97 122.292 127.054C123.683 126.091 124.882 125.266 126.076 124.446C141.741 113.619 157.411 102.803 173.064 91.9581C174.467 90.989 175.75 89.8465 177.062 88.7518C180.691 85.7249 186.438 78.9854 183.953 74.0083C188.328 74.2416 201.519 81.4124 206.815 85.6215C212.112 89.8306 216.921 96.9028 216.921 96.9028C220.179 98.7872 224.278 101.063 227.578 102.971C227.572 103.234 227.566 103.497 227.56 103.767C204.448 106.47 182.308 112.393 161.499 123.687C159.506 118.201 156.391 113.912 151.486 111.22L150.781 111.878C152.142 113.057 153.61 114.139 154.845 115.443C156.093 116.765 157.268 118.213 158.175 119.786C159.136 121.449 159.739 123.322 160.586 125.32C161.344 125.05 162.167 124.865 162.878 124.488C181.359 114.588 201.082 108.654 221.813 105.926L222.079 105.891C224.527 105.567 226.986 105.242 229.446 105.184C230.615 105.154 231.797 105.806 232.972 106.153L232.901 107.122C230.442 107.577 227.972 108.002 225.519 108.486C214.885 110.586 204.179 112.369 193.646 114.899C181.138 117.902 169.323 122.801 158.444 129.8C158.05 130.051 157.608 130.231 157.012 130.536Z" fill="white"/>
<path d="M135.082 175.706C135.086 177.392 135.519 178.362 135.579 179.688C135.639 181.014 135.03 183.698 134.254 185.661C133.599 187.316 132.744 188.361 132.07 190.215C131.606 191.491 131.379 192.437 130.609 193.555C129.616 194.996 127.627 196.278 127.627 196.278C127.627 196.278 125.633 197.173 123.982 197.108C122.311 197.042 122.09 196.278 120.863 195.781C116.792 194.13 113.573 195.674 110.217 192.146C111.005 189.581 110.749 187.028 108.76 184.953L102.038 183.697C101.978 182.585 101.924 181.64 101.87 180.642C103.841 178.322 105.775 176.038 108.08 173.323L110.926 170.339C109.768 167.272 110.09 166.13 112.497 164.493C114.044 163.44 115.861 162.013 117.521 160.871C121.666 163.082 124.251 163.805 129.011 165.114C130.224 165.311 130.917 165.507 132.1 165.114C133.178 164.212 141.895 123.815 141.874 122.216C141.854 120.617 144.252 119.013 146.855 120.557C151.06 123.052 152.254 124.865 156.784 131.908C166.81 125.673 173.692 121.916 181.8 119.68L182.131 120.295C182.131 120.295 178.285 123.294 177.658 123.779C176.647 124.561 175.488 125.566 174.51 126.599C173.322 127.856 172.151 128.457 171.197 129.751C168.953 132.798 167.723 135.572 161.699 135.228C159.87 135.228 158.353 136.102 156.619 137.383C155.203 138.429 154.792 141.129 153.567 140.701C151.838 140.097 148.998 141.531 148.832 142.692C148.667 143.853 145.916 144.281 145.188 145.417C144.459 146.552 145.031 150.121 144.634 153.105C144.119 156.982 144.016 159.277 142.541 162.898C141.377 167.411 141.125 167.297 139.389 170.066C138.022 172.246 135.078 174.168 135.082 175.706Z" fill="white"/>
</svg>
