<svg width="802" height="450" viewBox="0 0 802 450" fill="none" xmlns="http://www.w3.org/2000/svg">
<g filter="url(#filter0_d_118_2827)">
<rect x="28" y="21" width="746" height="394" rx="18" fill="white"/>
<g filter="url(#filter1_d_118_2827)">
<rect x="125" y="319" width="250" height="27" rx="13.5" fill="#F4F4F4"/>
</g>
<path d="M146.285 326.551C146.398 326.509 146.49 326.424 146.542 326.315C146.594 326.206 146.602 326.081 146.563 325.967C146.525 325.852 146.444 325.757 146.337 325.701C146.23 325.645 146.106 325.632 145.99 325.666C145.115 325.958 144.569 326.677 144.249 327.447C144.205 327.551 144.165 327.657 144.129 327.763C143.955 327.432 143.731 327.129 143.467 326.864C143.108 326.505 142.68 326.222 142.208 326.034C141.736 325.846 141.231 325.757 140.723 325.772C140.463 325.779 140.216 325.885 140.032 326.069C139.848 326.253 139.741 326.501 139.734 326.761C139.719 327.269 139.808 327.774 139.996 328.246C140.184 328.718 140.466 329.147 140.826 329.506L140.856 329.534C140.072 329.704 139.363 330.122 138.835 330.726C138.307 331.33 137.988 332.088 137.924 332.888L137.918 332.957C137.795 334.495 138.122 336.036 138.86 337.39L139.195 338.005C139.205 338.021 139.214 338.037 139.225 338.052L140.159 339.361C140.37 339.657 140.644 339.904 140.96 340.084C141.276 340.264 141.628 340.372 141.991 340.402C142.354 340.432 142.719 340.383 143.06 340.258C143.402 340.132 143.712 339.934 143.97 339.676C144.009 339.637 144.056 339.605 144.108 339.584C144.159 339.563 144.215 339.551 144.271 339.551C144.327 339.551 144.382 339.563 144.434 339.584C144.485 339.605 144.532 339.637 144.572 339.676C144.829 339.934 145.139 340.132 145.481 340.258C145.823 340.383 146.188 340.432 146.55 340.402C146.913 340.372 147.265 340.264 147.581 340.084C147.898 339.904 148.171 339.657 148.383 339.361L149.316 338.052C149.327 338.037 149.337 338.021 149.347 338.005L149.681 337.39C150.419 336.036 150.747 334.495 150.624 332.957L150.619 332.888C150.577 332.372 150.43 331.871 150.185 331.416C149.939 330.96 149.603 330.561 149.195 330.242C148.788 329.924 148.319 329.694 147.818 329.567C147.317 329.439 146.795 329.417 146.285 329.502L144.738 329.76C144.747 329.124 144.859 328.409 145.109 327.805C145.371 327.175 145.76 326.727 146.285 326.551ZM141.386 332.154C141.243 332.199 141.11 332.273 140.995 332.37C140.881 332.467 140.786 332.585 140.718 332.719C140.544 333.044 140.426 333.58 140.536 334.455C140.551 334.578 140.517 334.702 140.441 334.799C140.365 334.897 140.253 334.961 140.13 334.976C140.007 334.992 139.883 334.957 139.786 334.881C139.688 334.805 139.624 334.693 139.609 334.571C139.486 333.577 139.6 332.829 139.894 332.279C140.193 331.719 140.648 331.416 141.091 331.268C141.208 331.229 141.336 331.238 141.447 331.293C141.558 331.348 141.642 331.445 141.682 331.563C141.721 331.68 141.712 331.809 141.656 331.92C141.601 332.03 141.504 332.115 141.387 332.154H141.386Z" fill="#CCCCCC"/>
<line x1="162.057" y1="342.593" x2="162.057" y2="323.169" stroke="black" stroke-opacity="0.15" stroke-linecap="round"/>
<g filter="url(#filter2_d_118_2827)">
<rect x="125" y="279" width="250" height="28" rx="14" fill="#F4F4F4"/>
</g>
<line x1="162.14" y1="303.597" x2="162.14" y2="284.174" stroke="black" stroke-opacity="0.15" stroke-linecap="round"/>
<path d="M138.295 295.012V297.635C139.096 298.617 140.105 299.409 141.25 299.952C142.394 300.495 143.646 300.777 144.913 300.775C147.869 300.775 150.475 299.273 152.009 296.99V293.314C151.484 296.764 148.507 299.407 144.913 299.407C141.936 299.407 139.383 297.594 138.295 295.012ZM150.744 288.035V286.857C150.742 286.598 150.785 286.339 150.87 286.094C149.277 284.54 147.138 283.671 144.913 283.674C142.921 283.671 140.992 284.367 139.46 285.641L139.463 285.682L139.464 285.701V287.548C140.137 286.761 140.973 286.129 141.914 285.697C142.854 285.264 143.877 285.041 144.913 285.042C147.315 285.042 149.441 286.223 150.744 288.035Z" fill="#CCCCCC"/>
<path d="M150.382 292.225C150.382 293.676 149.806 295.068 148.78 296.094C147.755 297.121 146.364 297.697 144.913 297.697C143.462 297.697 142.071 297.121 141.046 296.094C140.02 295.068 139.444 293.676 139.444 292.225C139.444 290.773 140.02 289.381 141.046 288.355C142.071 287.329 143.462 286.752 144.913 286.752C146.364 286.752 147.755 287.329 148.78 288.355C149.806 289.381 150.382 290.773 150.382 292.225ZM144.913 297.013C145.541 297.013 146.164 296.889 146.744 296.649C147.325 296.408 147.853 296.055 148.297 295.611C148.741 295.166 149.094 294.638 149.334 294.057C149.575 293.476 149.699 292.853 149.699 292.225C149.699 291.596 149.575 290.973 149.334 290.392C149.094 289.811 148.741 289.283 148.297 288.839C147.853 288.394 147.325 288.041 146.744 287.801C146.164 287.56 145.541 287.436 144.913 287.436C143.644 287.436 142.427 287.941 141.529 288.839C140.632 289.737 140.127 290.955 140.127 292.225C140.127 293.495 140.632 294.713 141.529 295.611C142.427 296.509 143.644 297.013 144.913 297.013ZM154.136 286.369C154.136 285.753 153.636 285.254 153.021 285.254C152.132 285.254 151.421 285.972 151.428 286.855V290.651C151.428 291.508 151.925 292.276 152.693 292.623V298.518C152.693 298.874 152.98 299.161 153.336 299.161H153.493C153.848 299.161 154.136 298.874 154.136 298.518V286.369ZM138.295 285.254C138.172 285.254 138.054 285.303 137.966 285.39C137.879 285.478 137.83 285.596 137.83 285.719V287.559C137.83 287.696 137.721 287.799 137.591 287.799C137.454 287.799 137.352 287.689 137.352 287.559V285.74C137.352 285.487 137.154 285.261 136.901 285.254C136.634 285.247 136.415 285.459 136.415 285.719V287.559C136.415 287.696 136.306 287.799 136.176 287.799C136.039 287.799 135.937 287.689 135.937 287.559V285.74C135.937 285.487 135.738 285.261 135.485 285.254C135.219 285.247 135 285.459 135 285.719V288.852C135 289.469 135.299 290.02 135.758 290.363C136.169 290.595 136.169 291.657 136.169 291.657V298.511C136.169 298.867 136.456 299.154 136.812 299.154H136.969C137.324 299.154 137.612 298.867 137.612 298.511V291.657C137.612 291.657 137.612 290.637 138.022 290.363C138.258 290.188 138.449 289.96 138.58 289.698C138.712 289.435 138.78 289.146 138.781 288.852V285.719C138.774 285.595 138.72 285.477 138.63 285.391C138.54 285.304 138.42 285.256 138.295 285.254Z" fill="#CCCCCC"/>
<g filter="url(#filter3_d_118_2827)">
<rect x="125" y="239" width="250" height="28" rx="14" fill="#F4F4F4"/>
</g>
<g clip-path="url(#clip0_118_2827)">
<path d="M147.301 249.951C147.108 249.376 146.813 249.17 146.471 249.17C146.056 249.17 145.571 249.475 145.114 249.792C144.843 249.98 143.792 251.141 143.219 251.141C143.153 251.143 143.089 251.124 143.035 251.087C142.475 250.691 143.176 248.964 143.176 248.136C143.176 247.335 143.031 247.029 142.808 247.029C142.192 247.029 140.984 249.376 140.648 250.054C140.553 250.245 140.42 250.32 140.266 250.32C139.729 250.32 138.929 249.395 138.561 249.253C138.506 249.23 138.448 249.219 138.389 249.217C137.775 249.217 137.788 250.746 137.797 251.151C138.133 251.059 138.448 251.003 138.723 251.003C139.416 251.003 139.857 251.362 139.742 252.417C139.716 252.654 139.566 253.409 139.811 253.576C139.851 253.601 139.897 253.614 139.944 253.613C140.227 253.613 140.674 253.264 140.841 253.158C141.065 253.014 141.3 252.909 141.498 252.909C141.737 252.909 141.924 253.061 141.978 253.481C142.01 253.73 141.888 254.678 142.131 254.829C142.167 254.85 142.208 254.862 142.25 254.861C142.7 254.861 143.469 253.736 143.816 253.607C143.98 253.546 144.153 253.515 144.327 253.516C144.789 253.516 145.23 253.72 145.68 253.893C145.756 253.922 145.817 253.935 145.868 253.935C146.14 253.935 146.061 253.557 145.828 253.315C145.488 252.962 144.95 253.117 144.573 252.864C144.093 252.542 144.761 251.895 145.02 251.704C145.329 251.474 146.015 251.106 146.562 251.106C146.816 251.106 147.039 251.185 147.181 251.393C147.45 251.786 147.003 252.283 147.116 252.724C147.163 252.907 147.278 252.97 147.415 252.97C147.705 252.97 148.089 252.684 148.116 252.657C148.292 252.473 148.483 252.303 148.685 252.147C147.675 251.923 147.589 250.811 147.301 249.951Z" fill="#CCCCCC"/>
<path d="M139.021 249.123C139.021 249.123 139.894 249.894 140.267 249.894C140.339 249.894 140.392 249.866 140.417 249.797C140.954 248.326 142.089 246.645 142.83 246.645C143.154 246.645 143.402 246.965 143.492 247.763C143.609 248.796 142.895 250.361 143.238 250.718C143.246 250.726 143.255 250.732 143.265 250.735C143.275 250.739 143.285 250.741 143.296 250.741C143.682 250.741 145.205 248.788 146.51 248.788C146.61 248.788 146.71 248.8 146.807 248.825C147.982 249.126 147.473 251.131 148.427 251.704C148.585 251.8 148.766 251.852 148.951 251.853C149.302 251.853 149.623 251.653 149.7 251.238C149.894 250.192 146.572 248.163 148.369 248.163C148.627 248.163 148.99 248.205 149.484 248.297C149.778 246.282 149.675 245.723 149.412 245.723C149.112 245.723 148.603 246.449 148.233 246.574C148.222 246.577 148.211 246.579 148.199 246.579C147.988 246.579 147.995 245.817 147.633 245.817C147.399 245.817 147.011 246.135 146.312 247.181C145.951 247.72 145.681 247.933 145.468 247.933C144.656 247.933 144.679 244.828 143.706 244.828C143.509 244.828 143.272 244.955 142.979 245.259C142.529 245.727 142.109 245.892 141.716 245.892C140.759 245.892 139.966 244.908 139.316 244.908C139.059 244.908 138.825 245.062 138.611 245.49C138.17 246.378 139.665 246.332 139.021 249.123ZM140.165 249.523C139.99 249.444 139.68 249.234 139.389 248.995C139.443 248.731 139.476 248.495 139.495 248.276C139.577 248.139 139.678 248.003 139.801 247.878C140.303 247.365 140.946 247.203 141.262 247.499C140.812 248.119 140.417 248.878 140.165 249.523ZM147.544 248.202C147.379 248.59 147.699 249 148.187 249.537C148.153 249.574 148.114 249.606 148.07 249.631C148.023 249.657 147.973 249.674 147.92 249.684C147.765 249.158 147.504 248.654 146.888 248.496C146.798 248.474 146.706 248.46 146.613 248.455C146.446 247.913 146.523 247.403 146.839 247.227C147.187 247.032 147.695 247.31 148.042 247.851C147.849 247.888 147.639 247.977 147.544 248.202Z" fill="#CCCCCC"/>
<path d="M150.014 251.246C149.941 251.721 150.632 251.806 150.302 252.585C150.132 252.984 148.697 253.903 148.803 254.104C148.96 254.398 149.148 254.512 149.338 254.512C149.715 254.512 150.098 254.065 150.253 253.677C150.455 253.171 150.507 251.84 151 251.593C151.084 251.551 151.166 251.532 151.248 251.532C151.734 251.532 152.189 252.191 152.628 252.28C152.735 251.803 152.658 251.309 152.767 250.829C150.916 250.806 153.796 248.275 152.15 247.242C152.061 247.186 151.987 247.162 151.922 247.162C151.404 247.162 151.525 248.749 150.216 248.749C150.112 248.749 149.998 248.738 149.874 248.717C149.395 248.632 149.065 248.593 148.848 248.593C147.588 248.594 150.218 249.92 150.014 251.246Z" fill="#CCCCCC"/>
<path d="M153.293 248.759C153.34 248.473 153.342 248.182 153.3 247.896C153.181 247.098 152.558 246.45 151.912 246.449C151.691 246.449 151.162 246.541 150.912 247.327C150.743 247.256 150.574 247.19 150.402 247.127C150.55 246.132 150.495 245.449 150.229 245.101C150.165 245.013 150.082 244.942 149.985 244.894C149.888 244.845 149.782 244.82 149.673 244.82C149.326 244.82 148.936 245.053 148.451 245.55L148.433 245.503C148.33 245.225 148.158 244.759 147.696 244.759C147.381 244.759 146.963 244.953 146.084 246.234C145.829 246.216 145.574 246.202 145.319 246.194L145.272 246.022C144.998 245.015 144.687 243.874 143.811 243.874H143.811C143.453 243.874 143.078 244.084 142.661 244.517C142.351 244.839 142.045 244.996 141.724 244.996C141.332 244.996 140.931 244.771 140.543 244.554C140.151 244.335 139.745 244.108 139.326 244.108C138.829 244.108 138.425 244.413 138.091 245.04C137.709 245.756 137.921 246.23 138.127 246.688C138.216 246.888 138.31 247.099 138.377 247.359C136.152 248.315 134.729 249.763 134.729 251.386C134.729 255.885 139.192 261.16 144.696 261.16C150.2 261.16 154.662 255.885 154.662 251.386C154.662 250.427 154.158 249.531 153.293 248.759ZM144.696 260.482C140.506 260.482 136.984 257.193 135.812 253.748C137.459 255.44 140.818 256.599 144.696 256.599C148.574 256.599 151.932 255.44 153.579 253.748C152.408 257.192 148.885 260.482 144.696 260.482ZM148.395 254.67C148.315 254.922 148.066 255.305 147.758 255.574C147.281 255.99 146.7 256.079 146.424 255.789C146.191 255.544 146.229 255.088 146.497 254.661C147.043 253.788 147.827 253.596 148.168 253.769C148.161 253.793 148.152 253.816 148.147 253.842C148.1 254.107 148.185 254.386 148.395 254.67ZM153.501 250.399C153.175 250.399 153.019 251.3 152.996 251.867C152.975 252.367 152.831 252.533 152.625 252.533C152.328 252.533 151.902 252.189 151.53 251.994C151.411 251.932 151.32 251.904 151.248 251.904C151.035 251.904 150.996 252.153 150.923 252.505C150.8 253.1 150.653 253.717 150.331 254.23C150.094 254.607 149.728 254.869 149.362 254.869C149.121 254.869 148.88 254.755 148.674 254.488C147.867 253.438 149.641 253.223 149.994 252.504C150.199 252.088 150.133 251.943 149.946 251.943C149.577 251.943 148.736 252.506 148.563 252.665C148.257 252.945 147.905 253.358 147.474 253.358C147.401 253.358 147.326 253.346 147.248 253.32C146.792 253.166 146.727 252.591 146.824 252.163C146.904 251.806 147.09 251.486 146.612 251.467C146.596 251.467 146.579 251.466 146.562 251.466C146.255 251.466 145.941 251.567 145.662 251.694C145.324 251.847 144.856 252.122 144.733 252.525C144.695 252.649 145.515 252.778 145.643 252.828C146.282 253.077 146.595 254.281 145.926 254.281C145.84 254.281 145.737 254.261 145.616 254.217C145.197 254.06 144.776 253.839 144.337 253.839C144.193 253.839 144.047 253.863 143.899 253.921C143.593 254.041 143.425 254.385 143.184 254.6C142.827 254.92 142.512 255.093 142.264 255.093C141.922 255.093 141.71 254.765 141.696 254.047C141.684 253.463 141.572 253.274 141.391 253.274C141.068 253.274 140.526 253.878 139.944 253.922C139.927 253.923 139.91 253.924 139.895 253.924C139.118 253.924 139.42 252.446 139.48 251.99C139.547 251.493 139.247 251.316 138.785 251.316C138.267 251.316 137.546 251.539 136.91 251.781C136.941 251.808 136.973 251.832 137.002 251.862C137.584 252.442 137.775 253.208 137.43 253.57C137.085 253.932 136.334 253.755 135.754 253.174C135.173 252.593 134.981 251.828 135.326 251.465C135.621 251.154 136.079 251.259 136.469 251.466C136.978 251.295 137.495 251.146 137.483 250.905C137.392 249.085 137.908 248.745 138.306 248.746C138.458 248.749 138.607 248.791 138.739 248.866C139.098 246.55 137.75 246.392 138.383 245.203C138.683 244.64 138.996 244.448 139.327 244.448C140.037 244.448 140.824 245.336 141.724 245.336C142.096 245.336 142.487 245.184 142.899 244.755C143.269 244.371 143.567 244.214 143.812 244.214C144.907 244.214 144.936 247.362 145.562 247.362C145.683 247.362 145.825 247.246 146.001 246.969C146.919 245.526 147.408 245.098 147.696 245.098C148.117 245.098 148.111 246.008 148.389 246.008C148.447 246.008 148.516 245.969 148.604 245.876C149.066 245.384 149.421 245.159 149.674 245.159C150.271 245.159 150.3 246.409 149.814 248.357C149.814 248.357 149.923 248.385 150.082 248.385C150.421 248.385 150.988 248.26 151.21 247.481C151.35 246.99 151.622 246.789 151.912 246.789C152.371 246.789 152.874 247.291 152.972 247.947C153.15 249.146 152.36 249.995 152.422 250.357C152.433 250.421 152.464 250.446 152.511 250.446C152.688 250.446 153.086 250.086 153.433 250.086C153.692 250.086 153.923 250.287 154.012 250.99C153.809 250.564 153.639 250.399 153.501 250.399Z" fill="#CCCCCC"/>
</g>
<line x1="162.057" y1="262.601" x2="162.057" y2="243.178" stroke="black" stroke-opacity="0.15" stroke-linecap="round"/>
<g filter="url(#filter4_d_118_2827)">
<rect x="125" y="196" width="250" height="28" rx="14" fill="#F4F4F4"/>
</g>
<line x1="162.057" y1="219.627" x2="162.057" y2="200.204" stroke="black" stroke-opacity="0.15" stroke-linecap="round"/>
<path d="M136.802 201.406C136.467 201.914 136.384 202.539 136.514 203.261C136.668 204.121 137.136 205.091 137.811 206.004C139.162 207.83 141.343 209.409 143.283 209.648L143.419 209.665L143.506 209.769L150.646 218.342C151.358 218.511 151.817 218.406 152.056 218.171C152.297 217.933 152.408 217.475 152.23 216.749L136.802 201.406L136.802 201.406ZM150.594 201.49L146.605 205.459C146.163 205.898 146.159 206.381 146.387 206.908L146.482 207.127L146.309 207.291L144.969 208.562L146.058 209.645L147.33 208.309L147.495 208.135L147.715 208.23C148.272 208.469 148.801 208.459 149.211 208.051L153.201 204.083L152.682 203.567L150.088 206.147L149.603 205.664L152.196 203.084L151.644 202.534L149.05 205.114L148.564 204.63L151.157 202.051L150.594 201.49ZM143.091 210.344L136.273 216.815C136.105 217.508 136.213 217.941 136.44 218.165C136.667 218.389 137.107 218.491 137.795 218.326L144.165 211.634L143.091 210.344Z" fill="#CCCCCC"/>
<g filter="url(#filter5_d_118_2827)">
<rect x="125" y="153" width="250" height="28" rx="14" fill="#F4F4F4"/>
</g>
<line x1="162.057" y1="176.653" x2="162.057" y2="157.23" stroke="black" stroke-opacity="0.15" stroke-linecap="round"/>
<path d="M153.201 160.219V158.687L151.75 158.517C151.669 158.517 151.185 158.432 150.379 158.432C147.074 158.432 144.656 159.453 143.285 161.24C142.237 160.559 140.786 160.134 139.093 160.134C138.287 160.134 137.723 160.219 137.723 160.219L136.191 160.474L136.272 161.921C136.353 164.474 137.562 169.324 141.754 169.324H141.915V172.218C138.852 172.643 136.272 173.749 136.272 173.749V175.451H152.395V173.749C152.395 173.749 149.815 172.643 146.752 172.218V169.494C151.83 169.409 153.201 163.367 153.201 160.219ZM144.333 172.047H143.527V167.282C143.527 167.282 143.366 164.389 141.109 164.389C141.109 164.389 142.318 165.069 142.64 167.537C142.318 167.622 141.996 167.622 141.754 167.622C138.046 167.622 137.884 161.921 137.884 161.921C137.884 161.921 138.368 161.836 139.093 161.836C140.625 161.836 143.124 162.176 143.85 164.474C144.253 160.644 148.364 160.134 150.379 160.134C151.105 160.134 151.588 160.219 151.588 160.219C151.588 160.219 151.588 167.878 146.51 167.878H145.946C145.946 166.176 147.558 163.623 147.558 163.623C145.139 164.474 145.139 167.792 145.139 167.792V172.047H144.333Z" fill="#CCCCCC"/>
<g filter="url(#filter6_d_118_2827)">
<rect x="125" y="110" width="250" height="28" rx="14" fill="#F4F4F4"/>
</g>
<line x1="162.057" y1="133.679" x2="162.057" y2="114.256" stroke="black" stroke-opacity="0.15" stroke-linecap="round"/>
<path d="M147.428 117.16C148.134 117.16 148.805 117.347 149.375 117.721C150.345 118.351 150.94 119.312 151.076 120.427C151.124 120.967 151.054 121.511 150.871 122.021C150.687 122.531 150.394 122.994 150.013 123.379C149.418 123.966 148.661 124.341 147.828 124.426C146.204 124.596 144.775 125.242 143.712 126.323C143.584 126.448 143.411 126.519 143.232 126.519C143.052 126.519 142.88 126.448 142.751 126.323L141.909 125.481C141.85 125.422 141.803 125.351 141.771 125.274C141.739 125.197 141.722 125.114 141.722 125.03C141.722 124.817 141.816 124.63 141.995 124.451C143.023 123.413 143.653 122.035 143.806 120.452C143.916 119.321 144.52 118.351 145.506 117.713C146.067 117.347 146.731 117.16 147.428 117.16ZM147.428 115.458C146.433 115.458 145.438 115.73 144.579 116.283C143.083 117.245 142.258 118.742 142.114 120.291C142.003 121.414 141.578 122.46 140.796 123.243L140.77 123.269C139.784 124.255 139.784 125.761 140.711 126.68L141.552 127.523C142.02 127.991 142.624 128.22 143.227 128.22C143.831 128.22 144.443 127.991 144.911 127.523C145.736 126.697 146.824 126.246 148.006 126.119C149.171 125.991 150.31 125.481 151.212 124.587C151.777 124.022 152.209 123.337 152.474 122.583C152.739 121.829 152.831 121.024 152.744 120.229C152.657 119.435 152.392 118.67 151.969 117.991C151.546 117.312 150.977 116.738 150.302 116.309C149.443 115.739 148.44 115.458 147.428 115.458ZM139.393 130.654C139.622 131.13 139.546 131.709 139.146 132.1C138.973 132.276 138.752 132.397 138.511 132.449C138.27 132.502 138.019 132.482 137.789 132.394C137.559 132.305 137.359 132.151 137.215 131.951C137.071 131.751 136.989 131.513 136.978 131.266C136.731 131.255 136.493 131.173 136.293 131.029C136.093 130.884 135.939 130.685 135.851 130.454C135.762 130.224 135.743 129.973 135.795 129.732C135.847 129.491 135.969 129.27 136.144 129.097C136.536 128.705 137.122 128.62 137.59 128.85L139.699 126.782C139.818 126.944 139.954 127.131 140.107 127.284L140.949 128.127C141.127 128.297 141.297 128.441 141.518 128.569L139.393 130.654Z" fill="#CCCCCC"/>
<g filter="url(#filter7_d_118_2827)">
<rect x="125" y="66" width="250" height="29" rx="14.5" fill="white"/>
</g>
<path d="M249.568 74.1615C249.321 74.1615 249.115 74.078 248.948 73.9109C248.781 73.7444 248.698 73.5378 248.698 73.2912V71.5506C248.698 71.304 248.781 71.0972 248.948 70.9301C249.115 70.7636 249.321 70.6803 249.568 70.6803C249.814 70.6803 250.021 70.7636 250.188 70.9301C250.354 71.0972 250.438 71.304 250.438 71.5506V73.2912C250.438 73.5378 250.354 73.7444 250.188 73.9109C250.021 74.078 249.814 74.1615 249.568 74.1615ZM253.873 75.9457C253.714 75.7861 253.634 75.5865 253.634 75.3469C253.634 75.1079 253.714 74.9013 253.873 74.7272L255.091 73.4871C255.265 73.313 255.471 73.226 255.71 73.226C255.95 73.226 256.156 73.313 256.33 73.4871C256.49 73.6466 256.57 73.8497 256.57 74.0963C256.57 74.3429 256.49 74.5459 256.33 74.7055L255.091 75.9457C254.932 76.1052 254.729 76.185 254.482 76.185C254.236 76.185 254.033 76.1052 253.873 75.9457ZM256.526 81.124C256.28 81.124 256.073 81.0405 255.907 80.8734C255.74 80.7069 255.656 80.5003 255.656 80.2537C255.656 80.0071 255.74 79.8003 255.907 79.6332C256.073 79.4667 256.28 79.3834 256.526 79.3834H258.266C258.512 79.3834 258.719 79.4667 258.885 79.6332C259.052 79.8003 259.136 80.0071 259.136 80.2537C259.136 80.5003 259.052 80.7069 258.885 80.8734C258.719 81.0405 258.512 81.124 258.266 81.124H256.526ZM249.568 89.8272C249.321 89.8272 249.115 89.7436 248.948 89.5765C248.781 89.41 248.698 89.2034 248.698 88.9569V87.2162C248.698 86.9696 248.781 86.7631 248.948 86.5966C249.115 86.4295 249.321 86.3459 249.568 86.3459C249.814 86.3459 250.021 86.4295 250.188 86.5966C250.354 86.7631 250.438 86.9696 250.438 87.2162V88.9569C250.438 89.2034 250.354 89.41 250.188 89.5765C250.021 89.7436 249.814 89.8272 249.568 89.8272ZM244.045 75.9457L242.805 74.7272C242.631 74.5532 242.544 74.3429 242.544 74.0963C242.544 73.8497 242.631 73.6466 242.805 73.4871C242.965 73.3275 243.168 73.2477 243.414 73.2477C243.66 73.2477 243.863 73.3275 244.023 73.4871L245.262 74.7272C245.422 74.8868 245.501 75.0899 245.501 75.3365C245.501 75.5831 245.422 75.7861 245.262 75.9457C245.088 76.1052 244.885 76.185 244.653 76.185C244.421 76.185 244.219 76.1052 244.045 75.9457ZM255.091 87.0204L253.873 85.7802C253.714 85.6062 253.634 85.3996 253.634 85.1606C253.634 84.9209 253.714 84.7213 253.873 84.5618C254.033 84.4022 254.232 84.3224 254.472 84.3224C254.711 84.3224 254.917 84.4022 255.091 84.5618L256.33 85.7802C256.504 85.9398 256.588 86.1428 256.58 86.3894C256.573 86.636 256.49 86.8463 256.33 87.0204C256.156 87.1945 255.946 87.2815 255.7 87.2815C255.453 87.2815 255.25 87.1945 255.091 87.0204ZM240.87 81.124C240.623 81.124 240.417 81.0405 240.251 80.8734C240.084 80.7069 240 80.5003 240 80.2537C240 80.0071 240.084 79.8003 240.251 79.6332C240.417 79.4667 240.623 79.3834 240.87 79.3834H242.609C242.856 79.3834 243.063 79.4667 243.23 79.6332C243.396 79.8003 243.479 80.0071 243.479 80.2537C243.479 80.5003 243.396 80.7069 243.23 80.8734C243.063 81.0405 242.856 81.124 242.609 81.124H240.87ZM242.805 87.0204C242.646 86.8609 242.566 86.6578 242.566 86.4112C242.566 86.1646 242.646 85.9615 242.805 85.802L244.045 84.5618C244.204 84.4022 244.403 84.3224 244.643 84.3224C244.882 84.3224 245.088 84.4022 245.262 84.5618C245.436 84.7358 245.523 84.9427 245.523 85.1823C245.523 85.4214 245.436 85.6279 245.262 85.802L244.045 87.0204C243.871 87.1945 243.66 87.2815 243.414 87.2815C243.168 87.2815 242.965 87.1945 242.805 87.0204ZM249.568 85.4756C248.118 85.4756 246.886 84.9679 245.871 83.9526C244.856 82.9372 244.349 81.7043 244.349 80.2537C244.349 78.8032 244.856 77.5703 245.871 76.5549C246.886 75.5395 248.118 75.0319 249.568 75.0319C251.017 75.0319 252.25 75.5395 253.264 76.5549C254.279 77.5703 254.787 78.8032 254.787 80.2537C254.787 81.7043 254.279 82.9372 253.264 83.9526C252.25 84.9679 251.017 85.4756 249.568 85.4756ZM249.568 83.735C250.525 83.735 251.344 83.3941 252.025 82.7124C252.706 82.0306 253.047 81.2111 253.047 80.2537C253.047 79.2964 252.706 78.4768 252.025 77.7951C251.344 77.1134 250.525 76.7725 249.568 76.7725C248.611 76.7725 247.792 77.1134 247.111 77.7951C246.429 78.4768 246.089 79.2964 246.089 80.2537C246.089 81.2111 246.429 82.0306 247.111 82.7124C247.792 83.3941 248.611 83.735 249.568 83.735ZM249.568 83.735C248.611 83.735 247.792 83.3941 247.111 82.7124C246.429 82.0306 246.089 81.2111 246.089 80.2537C246.089 79.2964 246.429 78.4768 247.111 77.7951C247.792 77.1134 248.611 76.7725 249.568 76.7725C250.525 76.7725 251.344 77.1134 252.025 77.7951C252.706 78.4768 253.047 79.2964 253.047 80.2537C253.047 81.2111 252.706 82.0306 252.025 82.7124C251.344 83.3941 250.525 83.735 249.568 83.735Z" fill="#CCCCCC"/>
<g filter="url(#filter8_d_118_2827)">
<rect x="426" y="319" width="250" height="27" rx="13.5" fill="#F4F4F4"/>
</g>
<path d="M447.285 326.551C447.398 326.509 447.49 326.424 447.542 326.315C447.594 326.206 447.602 326.081 447.563 325.967C447.525 325.852 447.444 325.757 447.337 325.701C447.23 325.645 447.106 325.632 446.99 325.666C446.115 325.958 445.569 326.677 445.249 327.447C445.205 327.551 445.165 327.657 445.129 327.763C444.955 327.432 444.731 327.129 444.467 326.864C444.108 326.505 443.68 326.222 443.208 326.034C442.736 325.846 442.231 325.757 441.723 325.772C441.463 325.779 441.216 325.885 441.032 326.069C440.848 326.253 440.741 326.501 440.734 326.761C440.719 327.269 440.808 327.774 440.996 328.246C441.184 328.718 441.466 329.147 441.826 329.506L441.856 329.534C441.072 329.704 440.363 330.122 439.835 330.726C439.307 331.33 438.988 332.088 438.924 332.888L438.918 332.957C438.795 334.495 439.122 336.036 439.86 337.39L440.195 338.005C440.205 338.021 440.214 338.037 440.225 338.052L441.159 339.361C441.37 339.657 441.644 339.904 441.96 340.084C442.276 340.264 442.628 340.372 442.991 340.402C443.354 340.432 443.719 340.383 444.06 340.258C444.402 340.132 444.712 339.934 444.97 339.676C445.009 339.637 445.056 339.605 445.108 339.584C445.159 339.563 445.215 339.551 445.271 339.551C445.327 339.551 445.382 339.563 445.434 339.584C445.485 339.605 445.532 339.637 445.572 339.676C445.829 339.934 446.139 340.132 446.481 340.258C446.823 340.383 447.188 340.432 447.55 340.402C447.913 340.372 448.265 340.264 448.581 340.084C448.898 339.904 449.171 339.657 449.383 339.361L450.316 338.052C450.327 338.037 450.337 338.021 450.347 338.005L450.681 337.39C451.419 336.036 451.747 334.495 451.624 332.957L451.619 332.888C451.577 332.372 451.43 331.871 451.185 331.416C450.939 330.96 450.603 330.561 450.195 330.242C449.788 329.924 449.319 329.694 448.818 329.567C448.317 329.439 447.795 329.417 447.285 329.502L445.738 329.76C445.747 329.124 445.859 328.409 446.109 327.805C446.371 327.175 446.76 326.727 447.285 326.551ZM442.386 332.154C442.243 332.199 442.11 332.273 441.995 332.37C441.881 332.467 441.786 332.585 441.718 332.719C441.544 333.044 441.426 333.58 441.536 334.455C441.551 334.578 441.517 334.702 441.441 334.799C441.365 334.897 441.253 334.961 441.13 334.976C441.007 334.992 440.883 334.957 440.786 334.881C440.688 334.805 440.624 334.693 440.609 334.571C440.486 333.577 440.6 332.829 440.894 332.279C441.193 331.719 441.648 331.416 442.091 331.268C442.208 331.229 442.336 331.238 442.447 331.293C442.558 331.348 442.642 331.445 442.682 331.563C442.721 331.68 442.712 331.809 442.656 331.92C442.601 332.03 442.504 332.115 442.387 332.154H442.386Z" fill="#CCCCCC"/>
<line x1="463.057" y1="342.593" x2="463.057" y2="323.169" stroke="black" stroke-opacity="0.15" stroke-linecap="round"/>
<g filter="url(#filter9_d_118_2827)">
<rect x="426" y="279" width="250" height="28" rx="14" fill="#F4F4F4"/>
</g>
<line x1="463.14" y1="303.597" x2="463.14" y2="284.174" stroke="black" stroke-opacity="0.15" stroke-linecap="round"/>
<path d="M439.295 295.012V297.635C440.096 298.617 441.105 299.409 442.25 299.952C443.394 300.495 444.646 300.777 445.913 300.775C448.869 300.775 451.475 299.273 453.009 296.99V293.314C452.484 296.764 449.507 299.407 445.913 299.407C442.936 299.407 440.383 297.594 439.295 295.012ZM451.744 288.035V286.857C451.742 286.598 451.785 286.339 451.87 286.094C450.277 284.54 448.138 283.671 445.913 283.674C443.921 283.671 441.992 284.367 440.46 285.641L440.463 285.682L440.464 285.701V287.548C441.137 286.761 441.973 286.129 442.914 285.697C443.854 285.264 444.877 285.041 445.913 285.042C448.315 285.042 450.441 286.223 451.744 288.035Z" fill="#CCCCCC"/>
<path d="M451.382 292.225C451.382 293.676 450.806 295.068 449.78 296.094C448.755 297.121 447.364 297.697 445.913 297.697C444.462 297.697 443.071 297.121 442.046 296.094C441.02 295.068 440.444 293.676 440.444 292.225C440.444 290.773 441.02 289.381 442.046 288.355C443.071 287.329 444.462 286.752 445.913 286.752C447.364 286.752 448.755 287.329 449.78 288.355C450.806 289.381 451.382 290.773 451.382 292.225ZM445.913 297.013C446.541 297.013 447.164 296.889 447.744 296.649C448.325 296.408 448.853 296.055 449.297 295.611C449.741 295.166 450.094 294.638 450.334 294.057C450.575 293.476 450.699 292.853 450.699 292.225C450.699 291.596 450.575 290.973 450.334 290.392C450.094 289.811 449.741 289.283 449.297 288.839C448.853 288.394 448.325 288.041 447.744 287.801C447.164 287.56 446.541 287.436 445.913 287.436C444.644 287.436 443.427 287.941 442.529 288.839C441.632 289.737 441.127 290.955 441.127 292.225C441.127 293.495 441.632 294.713 442.529 295.611C443.427 296.509 444.644 297.013 445.913 297.013ZM455.136 286.369C455.136 285.753 454.636 285.254 454.021 285.254C453.132 285.254 452.421 285.972 452.428 286.855V290.651C452.428 291.508 452.925 292.276 453.693 292.623V298.518C453.693 298.874 453.98 299.161 454.336 299.161H454.493C454.848 299.161 455.136 298.874 455.136 298.518V286.369ZM439.295 285.254C439.172 285.254 439.054 285.303 438.966 285.39C438.879 285.478 438.83 285.596 438.83 285.719V287.559C438.83 287.696 438.721 287.799 438.591 287.799C438.454 287.799 438.352 287.689 438.352 287.559V285.74C438.352 285.487 438.154 285.261 437.901 285.254C437.634 285.247 437.415 285.459 437.415 285.719V287.559C437.415 287.696 437.306 287.799 437.176 287.799C437.039 287.799 436.937 287.689 436.937 287.559V285.74C436.937 285.487 436.738 285.261 436.485 285.254C436.219 285.247 436 285.459 436 285.719V288.852C436 289.469 436.299 290.02 436.758 290.363C437.169 290.595 437.169 291.657 437.169 291.657V298.511C437.169 298.867 437.456 299.154 437.812 299.154H437.969C438.324 299.154 438.612 298.867 438.612 298.511V291.657C438.612 291.657 438.612 290.637 439.022 290.363C439.258 290.188 439.449 289.96 439.58 289.698C439.712 289.435 439.78 289.146 439.781 288.852V285.719C439.774 285.595 439.72 285.477 439.63 285.391C439.54 285.304 439.42 285.256 439.295 285.254Z" fill="#CCCCCC"/>
<g filter="url(#filter10_d_118_2827)">
<rect x="426" y="239" width="250" height="28" rx="14" fill="#F4F4F4"/>
</g>
<g clip-path="url(#clip1_118_2827)">
<path d="M448.301 249.951C448.108 249.376 447.813 249.17 447.471 249.17C447.056 249.17 446.571 249.475 446.114 249.792C445.843 249.98 444.792 251.141 444.219 251.141C444.153 251.143 444.089 251.124 444.035 251.087C443.475 250.691 444.176 248.964 444.176 248.136C444.176 247.335 444.031 247.029 443.808 247.029C443.192 247.029 441.984 249.376 441.648 250.054C441.553 250.245 441.42 250.32 441.266 250.32C440.729 250.32 439.929 249.395 439.561 249.253C439.506 249.23 439.448 249.219 439.389 249.217C438.775 249.217 438.788 250.746 438.797 251.151C439.133 251.059 439.448 251.003 439.723 251.003C440.416 251.003 440.857 251.362 440.742 252.417C440.716 252.654 440.566 253.409 440.811 253.576C440.851 253.601 440.897 253.614 440.944 253.613C441.227 253.613 441.674 253.264 441.841 253.158C442.065 253.014 442.3 252.909 442.498 252.909C442.737 252.909 442.924 253.061 442.978 253.481C443.01 253.73 442.888 254.678 443.131 254.829C443.167 254.85 443.208 254.862 443.25 254.861C443.7 254.861 444.469 253.736 444.816 253.607C444.98 253.546 445.153 253.515 445.327 253.516C445.789 253.516 446.23 253.72 446.68 253.893C446.756 253.922 446.817 253.935 446.868 253.935C447.14 253.935 447.061 253.557 446.828 253.315C446.488 252.962 445.95 253.117 445.573 252.864C445.093 252.542 445.761 251.895 446.02 251.704C446.329 251.474 447.015 251.106 447.562 251.106C447.816 251.106 448.039 251.185 448.181 251.393C448.45 251.786 448.003 252.283 448.116 252.724C448.163 252.907 448.278 252.97 448.415 252.97C448.705 252.97 449.089 252.684 449.116 252.657C449.292 252.473 449.483 252.303 449.685 252.147C448.675 251.923 448.589 250.811 448.301 249.951Z" fill="#CCCCCC"/>
<path d="M440.021 249.123C440.021 249.123 440.894 249.894 441.267 249.894C441.339 249.894 441.392 249.866 441.417 249.797C441.954 248.326 443.089 246.645 443.83 246.645C444.154 246.645 444.402 246.965 444.492 247.763C444.609 248.796 443.895 250.361 444.238 250.718C444.246 250.726 444.255 250.732 444.265 250.735C444.275 250.739 444.285 250.741 444.296 250.741C444.682 250.741 446.205 248.788 447.51 248.788C447.61 248.788 447.71 248.8 447.807 248.825C448.982 249.126 448.473 251.131 449.427 251.704C449.585 251.8 449.766 251.852 449.951 251.853C450.302 251.853 450.623 251.653 450.7 251.238C450.894 250.192 447.572 248.163 449.369 248.163C449.627 248.163 449.99 248.205 450.484 248.297C450.778 246.282 450.675 245.723 450.412 245.723C450.112 245.723 449.603 246.449 449.233 246.574C449.222 246.577 449.211 246.579 449.199 246.579C448.988 246.579 448.995 245.817 448.633 245.817C448.399 245.817 448.011 246.135 447.312 247.181C446.951 247.72 446.681 247.933 446.468 247.933C445.656 247.933 445.679 244.828 444.706 244.828C444.509 244.828 444.272 244.955 443.979 245.259C443.529 245.727 443.109 245.892 442.716 245.892C441.759 245.892 440.966 244.908 440.316 244.908C440.059 244.908 439.825 245.062 439.611 245.49C439.17 246.378 440.665 246.332 440.021 249.123ZM441.165 249.523C440.99 249.444 440.68 249.234 440.389 248.995C440.443 248.731 440.476 248.495 440.495 248.276C440.577 248.139 440.678 248.003 440.801 247.878C441.303 247.365 441.946 247.203 442.262 247.499C441.812 248.119 441.417 248.878 441.165 249.523ZM448.544 248.202C448.379 248.59 448.699 249 449.187 249.537C449.153 249.574 449.114 249.606 449.07 249.631C449.023 249.657 448.973 249.674 448.92 249.684C448.765 249.158 448.504 248.654 447.888 248.496C447.798 248.474 447.706 248.46 447.613 248.455C447.446 247.913 447.523 247.403 447.839 247.227C448.187 247.032 448.695 247.31 449.042 247.851C448.849 247.888 448.639 247.977 448.544 248.202Z" fill="#CCCCCC"/>
<path d="M451.014 251.246C450.941 251.721 451.632 251.806 451.302 252.585C451.132 252.984 449.697 253.903 449.803 254.104C449.96 254.398 450.148 254.512 450.338 254.512C450.715 254.512 451.098 254.065 451.253 253.677C451.455 253.171 451.507 251.84 452 251.593C452.084 251.551 452.166 251.532 452.248 251.532C452.734 251.532 453.189 252.191 453.628 252.28C453.735 251.803 453.658 251.309 453.767 250.829C451.916 250.806 454.796 248.275 453.15 247.242C453.061 247.186 452.987 247.162 452.922 247.162C452.404 247.162 452.525 248.749 451.216 248.749C451.112 248.749 450.998 248.738 450.874 248.717C450.395 248.632 450.065 248.593 449.848 248.593C448.588 248.594 451.218 249.92 451.014 251.246Z" fill="#CCCCCC"/>
<path d="M454.293 248.759C454.34 248.473 454.342 248.182 454.3 247.896C454.181 247.098 453.558 246.45 452.912 246.449C452.691 246.449 452.162 246.541 451.912 247.327C451.743 247.256 451.574 247.19 451.402 247.127C451.55 246.132 451.495 245.449 451.229 245.101C451.165 245.013 451.082 244.942 450.985 244.894C450.888 244.845 450.782 244.82 450.673 244.82C450.326 244.82 449.936 245.053 449.451 245.55L449.433 245.503C449.33 245.225 449.158 244.759 448.696 244.759C448.381 244.759 447.963 244.953 447.084 246.234C446.829 246.216 446.574 246.202 446.319 246.194L446.272 246.022C445.998 245.015 445.687 243.874 444.811 243.874H444.811C444.453 243.874 444.078 244.084 443.661 244.517C443.351 244.839 443.045 244.996 442.724 244.996C442.332 244.996 441.931 244.771 441.543 244.554C441.151 244.335 440.745 244.108 440.326 244.108C439.829 244.108 439.425 244.413 439.091 245.04C438.709 245.756 438.921 246.23 439.127 246.688C439.216 246.888 439.31 247.099 439.377 247.359C437.152 248.315 435.729 249.763 435.729 251.386C435.729 255.885 440.192 261.16 445.696 261.16C451.2 261.16 455.662 255.885 455.662 251.386C455.662 250.427 455.158 249.531 454.293 248.759ZM445.696 260.482C441.506 260.482 437.984 257.193 436.812 253.748C438.459 255.44 441.818 256.599 445.696 256.599C449.574 256.599 452.932 255.44 454.579 253.748C453.408 257.192 449.885 260.482 445.696 260.482ZM449.395 254.67C449.315 254.922 449.066 255.305 448.758 255.574C448.281 255.99 447.7 256.079 447.424 255.789C447.191 255.544 447.229 255.088 447.497 254.661C448.043 253.788 448.827 253.596 449.168 253.769C449.161 253.793 449.152 253.816 449.147 253.842C449.1 254.107 449.185 254.386 449.395 254.67ZM454.501 250.399C454.175 250.399 454.019 251.3 453.996 251.867C453.975 252.367 453.831 252.533 453.625 252.533C453.328 252.533 452.902 252.189 452.53 251.994C452.411 251.932 452.32 251.904 452.248 251.904C452.035 251.904 451.996 252.153 451.923 252.505C451.8 253.1 451.653 253.717 451.331 254.23C451.094 254.607 450.728 254.869 450.362 254.869C450.121 254.869 449.88 254.755 449.674 254.488C448.867 253.438 450.641 253.223 450.994 252.504C451.199 252.088 451.133 251.943 450.946 251.943C450.577 251.943 449.736 252.506 449.563 252.665C449.257 252.945 448.905 253.358 448.474 253.358C448.401 253.358 448.326 253.346 448.248 253.32C447.792 253.166 447.727 252.591 447.824 252.163C447.904 251.806 448.09 251.486 447.612 251.467C447.596 251.467 447.579 251.466 447.562 251.466C447.255 251.466 446.941 251.567 446.662 251.694C446.324 251.847 445.856 252.122 445.733 252.525C445.695 252.649 446.515 252.778 446.643 252.828C447.282 253.077 447.595 254.281 446.926 254.281C446.84 254.281 446.737 254.261 446.616 254.217C446.197 254.06 445.776 253.839 445.337 253.839C445.193 253.839 445.047 253.863 444.899 253.921C444.593 254.041 444.425 254.385 444.184 254.6C443.827 254.92 443.512 255.093 443.264 255.093C442.922 255.093 442.71 254.765 442.696 254.047C442.684 253.463 442.572 253.274 442.391 253.274C442.068 253.274 441.526 253.878 440.944 253.922C440.927 253.923 440.91 253.924 440.895 253.924C440.118 253.924 440.42 252.446 440.48 251.99C440.547 251.493 440.247 251.316 439.785 251.316C439.267 251.316 438.546 251.539 437.91 251.781C437.941 251.808 437.973 251.832 438.002 251.862C438.584 252.442 438.775 253.208 438.43 253.57C438.085 253.932 437.334 253.755 436.754 253.174C436.173 252.593 435.981 251.828 436.326 251.465C436.621 251.154 437.079 251.259 437.469 251.466C437.978 251.295 438.495 251.146 438.483 250.905C438.392 249.085 438.908 248.745 439.306 248.746C439.458 248.749 439.607 248.791 439.739 248.866C440.098 246.55 438.75 246.392 439.383 245.203C439.683 244.64 439.996 244.448 440.327 244.448C441.037 244.448 441.824 245.336 442.724 245.336C443.096 245.336 443.487 245.184 443.899 244.755C444.269 244.371 444.567 244.214 444.812 244.214C445.907 244.214 445.936 247.362 446.562 247.362C446.683 247.362 446.825 247.246 447.001 246.969C447.919 245.526 448.408 245.098 448.696 245.098C449.117 245.098 449.111 246.008 449.389 246.008C449.447 246.008 449.516 245.969 449.604 245.876C450.066 245.384 450.421 245.159 450.674 245.159C451.271 245.159 451.3 246.409 450.814 248.357C450.814 248.357 450.923 248.385 451.082 248.385C451.421 248.385 451.988 248.26 452.21 247.481C452.35 246.99 452.622 246.789 452.912 246.789C453.371 246.789 453.874 247.291 453.972 247.947C454.15 249.146 453.36 249.995 453.422 250.357C453.433 250.421 453.464 250.446 453.511 250.446C453.688 250.446 454.086 250.086 454.433 250.086C454.692 250.086 454.923 250.287 455.012 250.99C454.809 250.564 454.639 250.399 454.501 250.399Z" fill="#CCCCCC"/>
</g>
<line x1="463.057" y1="262.601" x2="463.057" y2="243.178" stroke="black" stroke-opacity="0.15" stroke-linecap="round"/>
<g filter="url(#filter11_d_118_2827)">
<rect x="426" y="196" width="250" height="28" rx="14" fill="#F4F4F4"/>
</g>
<line x1="463.057" y1="219.627" x2="463.057" y2="200.204" stroke="black" stroke-opacity="0.15" stroke-linecap="round"/>
<path d="M437.802 201.406C437.467 201.914 437.384 202.539 437.514 203.261C437.668 204.121 438.136 205.091 438.811 206.004C440.162 207.83 442.343 209.409 444.283 209.648L444.419 209.665L444.506 209.769L451.646 218.342C452.358 218.511 452.817 218.406 453.056 218.171C453.297 217.933 453.408 217.475 453.23 216.749L437.802 201.406L437.802 201.406ZM451.594 201.49L447.605 205.459C447.163 205.898 447.159 206.381 447.387 206.908L447.482 207.127L447.309 207.291L445.969 208.562L447.058 209.645L448.33 208.309L448.495 208.135L448.715 208.23C449.272 208.469 449.801 208.459 450.211 208.051L454.201 204.083L453.682 203.567L451.088 206.147L450.603 205.664L453.196 203.084L452.644 202.534L450.05 205.114L449.564 204.63L452.157 202.051L451.594 201.49ZM444.091 210.344L437.273 216.815C437.105 217.508 437.213 217.941 437.44 218.165C437.667 218.389 438.107 218.491 438.795 218.326L445.165 211.634L444.091 210.344Z" fill="#CCCCCC"/>
<g filter="url(#filter12_d_118_2827)">
<rect x="426" y="153" width="250" height="28" rx="14" fill="#F4F4F4"/>
</g>
<line x1="463.057" y1="176.653" x2="463.057" y2="157.23" stroke="black" stroke-opacity="0.15" stroke-linecap="round"/>
<path d="M454.201 160.219V158.687L452.75 158.517C452.669 158.517 452.185 158.432 451.379 158.432C448.074 158.432 445.656 159.453 444.285 161.24C443.237 160.559 441.786 160.134 440.093 160.134C439.287 160.134 438.723 160.219 438.723 160.219L437.191 160.474L437.272 161.921C437.353 164.474 438.562 169.324 442.754 169.324H442.915V172.218C439.852 172.643 437.272 173.749 437.272 173.749V175.451H453.395V173.749C453.395 173.749 450.815 172.643 447.752 172.218V169.494C452.83 169.409 454.201 163.367 454.201 160.219ZM445.333 172.047H444.527V167.282C444.527 167.282 444.366 164.389 442.109 164.389C442.109 164.389 443.318 165.069 443.64 167.537C443.318 167.622 442.996 167.622 442.754 167.622C439.046 167.622 438.884 161.921 438.884 161.921C438.884 161.921 439.368 161.836 440.093 161.836C441.625 161.836 444.124 162.176 444.85 164.474C445.253 160.644 449.364 160.134 451.379 160.134C452.105 160.134 452.588 160.219 452.588 160.219C452.588 160.219 452.588 167.878 447.51 167.878H446.946C446.946 166.176 448.558 163.623 448.558 163.623C446.139 164.474 446.139 167.792 446.139 167.792V172.047H445.333Z" fill="#CCCCCC"/>
<g filter="url(#filter13_d_118_2827)">
<rect x="426" y="110" width="250" height="28" rx="14" fill="#F4F4F4"/>
</g>
<line x1="463.057" y1="133.679" x2="463.057" y2="114.256" stroke="black" stroke-opacity="0.15" stroke-linecap="round"/>
<path d="M448.428 117.16C449.134 117.16 449.805 117.347 450.375 117.721C451.345 118.351 451.94 119.312 452.076 120.427C452.124 120.967 452.054 121.511 451.871 122.021C451.687 122.531 451.394 122.994 451.013 123.379C450.418 123.966 449.661 124.341 448.828 124.426C447.204 124.596 445.775 125.242 444.712 126.323C444.584 126.448 444.411 126.519 444.232 126.519C444.052 126.519 443.88 126.448 443.751 126.323L442.909 125.481C442.85 125.422 442.803 125.351 442.771 125.274C442.739 125.197 442.722 125.114 442.722 125.03C442.722 124.817 442.816 124.63 442.995 124.451C444.023 123.413 444.653 122.035 444.806 120.452C444.916 119.321 445.52 118.351 446.506 117.713C447.067 117.347 447.731 117.16 448.428 117.16ZM448.428 115.458C447.433 115.458 446.438 115.73 445.579 116.283C444.083 117.245 443.258 118.742 443.114 120.291C443.003 121.414 442.578 122.46 441.796 123.243L441.77 123.269C440.784 124.255 440.784 125.761 441.711 126.68L442.552 127.523C443.02 127.991 443.624 128.22 444.227 128.22C444.831 128.22 445.443 127.991 445.911 127.523C446.736 126.697 447.824 126.246 449.006 126.119C450.171 125.991 451.31 125.481 452.212 124.587C452.777 124.022 453.209 123.337 453.474 122.583C453.739 121.829 453.831 121.024 453.744 120.229C453.657 119.435 453.392 118.67 452.969 117.991C452.546 117.312 451.977 116.738 451.302 116.309C450.443 115.739 449.44 115.458 448.428 115.458ZM440.393 130.654C440.622 131.13 440.546 131.709 440.146 132.1C439.973 132.276 439.752 132.397 439.511 132.449C439.27 132.502 439.019 132.482 438.789 132.394C438.559 132.305 438.359 132.151 438.215 131.951C438.071 131.751 437.989 131.513 437.978 131.266C437.731 131.255 437.493 131.173 437.293 131.029C437.093 130.884 436.939 130.685 436.851 130.454C436.762 130.224 436.743 129.973 436.795 129.732C436.847 129.491 436.969 129.27 437.144 129.097C437.536 128.705 438.122 128.62 438.59 128.85L440.699 126.782C440.818 126.944 440.954 127.131 441.107 127.284L441.949 128.127C442.127 128.297 442.297 128.441 442.518 128.569L440.393 130.654Z" fill="#CCCCCC"/>
<g filter="url(#filter14_d_118_2827)">
<rect x="426" y="66" width="250" height="29" rx="14.5" fill="white"/>
</g>
<path d="M556.902 85.9736C558.402 85.2665 559.542 84.1901 560.303 82.9335C560.615 82.4159 560.255 81.7322 559.643 81.7297C558.479 81.7244 557.33 81.4598 556.28 80.955C555.23 80.4502 554.306 79.7179 553.574 78.8111C552.84 77.9064 552.316 76.8494 552.041 75.7169C551.765 74.5844 551.746 73.4049 551.983 72.2638C552.101 71.6697 551.52 71.1649 550.948 71.3743C550.121 71.658 549.324 72.0908 548.606 72.6724C544.894 75.6799 544.622 81.3686 548.313 84.6997C550.635 86.8029 554.073 87.3104 556.902 85.9736Z" fill="#CCCCCC"/>
</g>
<defs>
<filter id="filter0_d_118_2827" x="0" y="0" width="802" height="450" filterUnits="userSpaceOnUse" color-interpolation-filters="sRGB">
<feFlood flood-opacity="0" result="BackgroundImageFix"/>
<feColorMatrix in="SourceAlpha" type="matrix" values="0 0 0 0 0 0 0 0 0 0 0 0 0 0 0 0 0 0 127 0" result="hardAlpha"/>
<feMorphology radius="7" operator="dilate" in="SourceAlpha" result="effect1_dropShadow_118_2827"/>
<feOffset dy="7"/>
<feGaussianBlur stdDeviation="10.5"/>
<feComposite in2="hardAlpha" operator="out"/>
<feColorMatrix type="matrix" values="0 0 0 0 0 0 0 0 0 0 0 0 0 0 0 0 0 0 0.25 0"/>
<feBlend mode="normal" in2="BackgroundImageFix" result="effect1_dropShadow_118_2827"/>
<feBlend mode="normal" in="SourceGraphic" in2="effect1_dropShadow_118_2827" result="shape"/>
</filter>
<filter id="filter1_d_118_2827" x="124" y="319" width="252" height="42" filterUnits="userSpaceOnUse" color-interpolation-filters="sRGB">
<feFlood flood-opacity="0" result="BackgroundImageFix"/>
<feColorMatrix in="SourceAlpha" type="matrix" values="0 0 0 0 0 0 0 0 0 0 0 0 0 0 0 0 0 0 127 0" result="hardAlpha"/>
<feMorphology radius="10" operator="erode" in="SourceAlpha" result="effect1_dropShadow_118_2827"/>
<feOffset dy="14"/>
<feGaussianBlur stdDeviation="5.5"/>
<feComposite in2="hardAlpha" operator="out"/>
<feColorMatrix type="matrix" values="0 0 0 0 0 0 0 0 0 0 0 0 0 0 0 0 0 0 0.25 0"/>
<feBlend mode="normal" in2="BackgroundImageFix" result="effect1_dropShadow_118_2827"/>
<feBlend mode="normal" in="SourceGraphic" in2="effect1_dropShadow_118_2827" result="shape"/>
</filter>
<filter id="filter2_d_118_2827" x="124" y="279" width="252" height="43" filterUnits="userSpaceOnUse" color-interpolation-filters="sRGB">
<feFlood flood-opacity="0" result="BackgroundImageFix"/>
<feColorMatrix in="SourceAlpha" type="matrix" values="0 0 0 0 0 0 0 0 0 0 0 0 0 0 0 0 0 0 127 0" result="hardAlpha"/>
<feMorphology radius="10" operator="erode" in="SourceAlpha" result="effect1_dropShadow_118_2827"/>
<feOffset dy="14"/>
<feGaussianBlur stdDeviation="5.5"/>
<feComposite in2="hardAlpha" operator="out"/>
<feColorMatrix type="matrix" values="0 0 0 0 0 0 0 0 0 0 0 0 0 0 0 0 0 0 0.25 0"/>
<feBlend mode="normal" in2="BackgroundImageFix" result="effect1_dropShadow_118_2827"/>
<feBlend mode="normal" in="SourceGraphic" in2="effect1_dropShadow_118_2827" result="shape"/>
</filter>
<filter id="filter3_d_118_2827" x="124" y="239" width="252" height="43" filterUnits="userSpaceOnUse" color-interpolation-filters="sRGB">
<feFlood flood-opacity="0" result="BackgroundImageFix"/>
<feColorMatrix in="SourceAlpha" type="matrix" values="0 0 0 0 0 0 0 0 0 0 0 0 0 0 0 0 0 0 127 0" result="hardAlpha"/>
<feMorphology radius="10" operator="erode" in="SourceAlpha" result="effect1_dropShadow_118_2827"/>
<feOffset dy="14"/>
<feGaussianBlur stdDeviation="5.5"/>
<feComposite in2="hardAlpha" operator="out"/>
<feColorMatrix type="matrix" values="0 0 0 0 0 0 0 0 0 0 0 0 0 0 0 0 0 0 0.25 0"/>
<feBlend mode="normal" in2="BackgroundImageFix" result="effect1_dropShadow_118_2827"/>
<feBlend mode="normal" in="SourceGraphic" in2="effect1_dropShadow_118_2827" result="shape"/>
</filter>
<filter id="filter4_d_118_2827" x="124" y="196" width="252" height="43" filterUnits="userSpaceOnUse" color-interpolation-filters="sRGB">
<feFlood flood-opacity="0" result="BackgroundImageFix"/>
<feColorMatrix in="SourceAlpha" type="matrix" values="0 0 0 0 0 0 0 0 0 0 0 0 0 0 0 0 0 0 127 0" result="hardAlpha"/>
<feMorphology radius="10" operator="erode" in="SourceAlpha" result="effect1_dropShadow_118_2827"/>
<feOffset dy="14"/>
<feGaussianBlur stdDeviation="5.5"/>
<feComposite in2="hardAlpha" operator="out"/>
<feColorMatrix type="matrix" values="0 0 0 0 0 0 0 0 0 0 0 0 0 0 0 0 0 0 0.25 0"/>
<feBlend mode="normal" in2="BackgroundImageFix" result="effect1_dropShadow_118_2827"/>
<feBlend mode="normal" in="SourceGraphic" in2="effect1_dropShadow_118_2827" result="shape"/>
</filter>
<filter id="filter5_d_118_2827" x="124" y="153" width="252" height="43" filterUnits="userSpaceOnUse" color-interpolation-filters="sRGB">
<feFlood flood-opacity="0" result="BackgroundImageFix"/>
<feColorMatrix in="SourceAlpha" type="matrix" values="0 0 0 0 0 0 0 0 0 0 0 0 0 0 0 0 0 0 127 0" result="hardAlpha"/>
<feMorphology radius="10" operator="erode" in="SourceAlpha" result="effect1_dropShadow_118_2827"/>
<feOffset dy="14"/>
<feGaussianBlur stdDeviation="5.5"/>
<feComposite in2="hardAlpha" operator="out"/>
<feColorMatrix type="matrix" values="0 0 0 0 0 0 0 0 0 0 0 0 0 0 0 0 0 0 0.25 0"/>
<feBlend mode="normal" in2="BackgroundImageFix" result="effect1_dropShadow_118_2827"/>
<feBlend mode="normal" in="SourceGraphic" in2="effect1_dropShadow_118_2827" result="shape"/>
</filter>
<filter id="filter6_d_118_2827" x="124" y="110" width="252" height="43" filterUnits="userSpaceOnUse" color-interpolation-filters="sRGB">
<feFlood flood-opacity="0" result="BackgroundImageFix"/>
<feColorMatrix in="SourceAlpha" type="matrix" values="0 0 0 0 0 0 0 0 0 0 0 0 0 0 0 0 0 0 127 0" result="hardAlpha"/>
<feMorphology radius="10" operator="erode" in="SourceAlpha" result="effect1_dropShadow_118_2827"/>
<feOffset dy="14"/>
<feGaussianBlur stdDeviation="5.5"/>
<feComposite in2="hardAlpha" operator="out"/>
<feColorMatrix type="matrix" values="0 0 0 0 0 0 0 0 0 0 0 0 0 0 0 0 0 0 0.25 0"/>
<feBlend mode="normal" in2="BackgroundImageFix" result="effect1_dropShadow_118_2827"/>
<feBlend mode="normal" in="SourceGraphic" in2="effect1_dropShadow_118_2827" result="shape"/>
</filter>
<filter id="filter7_d_118_2827" x="110" y="50" width="280" height="59" filterUnits="userSpaceOnUse" color-interpolation-filters="sRGB">
<feFlood flood-opacity="0" result="BackgroundImageFix"/>
<feColorMatrix in="SourceAlpha" type="matrix" values="0 0 0 0 0 0 0 0 0 0 0 0 0 0 0 0 0 0 127 0" result="hardAlpha"/>
<feMorphology radius="1" operator="dilate" in="SourceAlpha" result="effect1_dropShadow_118_2827"/>
<feOffset dy="-1"/>
<feGaussianBlur stdDeviation="7"/>
<feComposite in2="hardAlpha" operator="out"/>
<feColorMatrix type="matrix" values="0 0 0 0 0 0 0 0 0 0 0 0 0 0 0 0 0 0 0.15 0"/>
<feBlend mode="normal" in2="BackgroundImageFix" result="effect1_dropShadow_118_2827"/>
<feBlend mode="normal" in="SourceGraphic" in2="effect1_dropShadow_118_2827" result="shape"/>
</filter>
<filter id="filter8_d_118_2827" x="425" y="319" width="252" height="42" filterUnits="userSpaceOnUse" color-interpolation-filters="sRGB">
<feFlood flood-opacity="0" result="BackgroundImageFix"/>
<feColorMatrix in="SourceAlpha" type="matrix" values="0 0 0 0 0 0 0 0 0 0 0 0 0 0 0 0 0 0 127 0" result="hardAlpha"/>
<feMorphology radius="10" operator="erode" in="SourceAlpha" result="effect1_dropShadow_118_2827"/>
<feOffset dy="14"/>
<feGaussianBlur stdDeviation="5.5"/>
<feComposite in2="hardAlpha" operator="out"/>
<feColorMatrix type="matrix" values="0 0 0 0 0 0 0 0 0 0 0 0 0 0 0 0 0 0 0.25 0"/>
<feBlend mode="normal" in2="BackgroundImageFix" result="effect1_dropShadow_118_2827"/>
<feBlend mode="normal" in="SourceGraphic" in2="effect1_dropShadow_118_2827" result="shape"/>
</filter>
<filter id="filter9_d_118_2827" x="425" y="279" width="252" height="43" filterUnits="userSpaceOnUse" color-interpolation-filters="sRGB">
<feFlood flood-opacity="0" result="BackgroundImageFix"/>
<feColorMatrix in="SourceAlpha" type="matrix" values="0 0 0 0 0 0 0 0 0 0 0 0 0 0 0 0 0 0 127 0" result="hardAlpha"/>
<feMorphology radius="10" operator="erode" in="SourceAlpha" result="effect1_dropShadow_118_2827"/>
<feOffset dy="14"/>
<feGaussianBlur stdDeviation="5.5"/>
<feComposite in2="hardAlpha" operator="out"/>
<feColorMatrix type="matrix" values="0 0 0 0 0 0 0 0 0 0 0 0 0 0 0 0 0 0 0.25 0"/>
<feBlend mode="normal" in2="BackgroundImageFix" result="effect1_dropShadow_118_2827"/>
<feBlend mode="normal" in="SourceGraphic" in2="effect1_dropShadow_118_2827" result="shape"/>
</filter>
<filter id="filter10_d_118_2827" x="425" y="239" width="252" height="43" filterUnits="userSpaceOnUse" color-interpolation-filters="sRGB">
<feFlood flood-opacity="0" result="BackgroundImageFix"/>
<feColorMatrix in="SourceAlpha" type="matrix" values="0 0 0 0 0 0 0 0 0 0 0 0 0 0 0 0 0 0 127 0" result="hardAlpha"/>
<feMorphology radius="10" operator="erode" in="SourceAlpha" result="effect1_dropShadow_118_2827"/>
<feOffset dy="14"/>
<feGaussianBlur stdDeviation="5.5"/>
<feComposite in2="hardAlpha" operator="out"/>
<feColorMatrix type="matrix" values="0 0 0 0 0 0 0 0 0 0 0 0 0 0 0 0 0 0 0.25 0"/>
<feBlend mode="normal" in2="BackgroundImageFix" result="effect1_dropShadow_118_2827"/>
<feBlend mode="normal" in="SourceGraphic" in2="effect1_dropShadow_118_2827" result="shape"/>
</filter>
<filter id="filter11_d_118_2827" x="425" y="196" width="252" height="43" filterUnits="userSpaceOnUse" color-interpolation-filters="sRGB">
<feFlood flood-opacity="0" result="BackgroundImageFix"/>
<feColorMatrix in="SourceAlpha" type="matrix" values="0 0 0 0 0 0 0 0 0 0 0 0 0 0 0 0 0 0 127 0" result="hardAlpha"/>
<feMorphology radius="10" operator="erode" in="SourceAlpha" result="effect1_dropShadow_118_2827"/>
<feOffset dy="14"/>
<feGaussianBlur stdDeviation="5.5"/>
<feComposite in2="hardAlpha" operator="out"/>
<feColorMatrix type="matrix" values="0 0 0 0 0 0 0 0 0 0 0 0 0 0 0 0 0 0 0.25 0"/>
<feBlend mode="normal" in2="BackgroundImageFix" result="effect1_dropShadow_118_2827"/>
<feBlend mode="normal" in="SourceGraphic" in2="effect1_dropShadow_118_2827" result="shape"/>
</filter>
<filter id="filter12_d_118_2827" x="425" y="153" width="252" height="43" filterUnits="userSpaceOnUse" color-interpolation-filters="sRGB">
<feFlood flood-opacity="0" result="BackgroundImageFix"/>
<feColorMatrix in="SourceAlpha" type="matrix" values="0 0 0 0 0 0 0 0 0 0 0 0 0 0 0 0 0 0 127 0" result="hardAlpha"/>
<feMorphology radius="10" operator="erode" in="SourceAlpha" result="effect1_dropShadow_118_2827"/>
<feOffset dy="14"/>
<feGaussianBlur stdDeviation="5.5"/>
<feComposite in2="hardAlpha" operator="out"/>
<feColorMatrix type="matrix" values="0 0 0 0 0 0 0 0 0 0 0 0 0 0 0 0 0 0 0.25 0"/>
<feBlend mode="normal" in2="BackgroundImageFix" result="effect1_dropShadow_118_2827"/>
<feBlend mode="normal" in="SourceGraphic" in2="effect1_dropShadow_118_2827" result="shape"/>
</filter>
<filter id="filter13_d_118_2827" x="425" y="110" width="252" height="43" filterUnits="userSpaceOnUse" color-interpolation-filters="sRGB">
<feFlood flood-opacity="0" result="BackgroundImageFix"/>
<feColorMatrix in="SourceAlpha" type="matrix" values="0 0 0 0 0 0 0 0 0 0 0 0 0 0 0 0 0 0 127 0" result="hardAlpha"/>
<feMorphology radius="10" operator="erode" in="SourceAlpha" result="effect1_dropShadow_118_2827"/>
<feOffset dy="14"/>
<feGaussianBlur stdDeviation="5.5"/>
<feComposite in2="hardAlpha" operator="out"/>
<feColorMatrix type="matrix" values="0 0 0 0 0 0 0 0 0 0 0 0 0 0 0 0 0 0 0.25 0"/>
<feBlend mode="normal" in2="BackgroundImageFix" result="effect1_dropShadow_118_2827"/>
<feBlend mode="normal" in="SourceGraphic" in2="effect1_dropShadow_118_2827" result="shape"/>
</filter>
<filter id="filter14_d_118_2827" x="411" y="50" width="280" height="59" filterUnits="userSpaceOnUse" color-interpolation-filters="sRGB">
<feFlood flood-opacity="0" result="BackgroundImageFix"/>
<feColorMatrix in="SourceAlpha" type="matrix" values="0 0 0 0 0 0 0 0 0 0 0 0 0 0 0 0 0 0 127 0" result="hardAlpha"/>
<feMorphology radius="1" operator="dilate" in="SourceAlpha" result="effect1_dropShadow_118_2827"/>
<feOffset dy="-1"/>
<feGaussianBlur stdDeviation="7"/>
<feComposite in2="hardAlpha" operator="out"/>
<feColorMatrix type="matrix" values="0 0 0 0 0 0 0 0 0 0 0 0 0 0 0 0 0 0 0.15 0"/>
<feBlend mode="normal" in2="BackgroundImageFix" result="effect1_dropShadow_118_2827"/>
<feBlend mode="normal" in="SourceGraphic" in2="effect1_dropShadow_118_2827" result="shape"/>
</filter>
<clipPath id="clip0_118_2827">
<rect width="21.2617" height="21.2743" fill="white" transform="translate(134.065 240.551)"/>
</clipPath>
<clipPath id="clip1_118_2827">
<rect width="21.2617" height="21.2743" fill="white" transform="translate(435.065 240.551)"/>
</clipPath>
</defs>
</svg>
