<svg width="24" height="18" viewBox="0 0 24 18" fill="none" xmlns="http://www.w3.org/2000/svg">
<path d="M18.9844 11.0156C18.9844 11.5469 18.7812 12.0156 18.375 12.4219C18 12.7969 17.5469 12.9844 17.0156 12.9844H3C2.4375 12.9844 1.95312 12.7969 1.54688 12.4219C1.17188 12.0156 0.984375 11.5469 0.984375 11.0156V3C0.984375 2.4375 1.17188 1.96875 1.54688 1.59375C1.95312 1.1875 2.4375 0.984375 3 0.984375H17.0156C17.5469 0.984375 18 1.1875 18.375 1.59375C18.7812 1.96875 18.9844 2.4375 18.9844 3V11.0156ZM9.98438 9.98438C10.5469 9.98438 11.0469 9.85938 11.4844 9.60938C11.9531 9.32812 12.3125 8.96875 12.5625 8.53125C12.8438 8.0625 12.9844 7.54688 12.9844 6.98438C12.9844 6.45312 12.8438 5.96875 12.5625 5.53125C12.3125 5.0625 11.9531 4.6875 11.4844 4.40625C11.0469 4.125 10.5469 3.98438 9.98438 3.98438C9.45312 3.98438 8.95312 4.125 8.48438 4.40625C8.04688 4.6875 7.6875 5.0625 7.40625 5.53125C7.125 5.96875 6.98438 6.45312 6.98438 6.98438C6.98438 7.54688 7.125 8.0625 7.40625 8.53125C7.6875 8.96875 8.04688 9.32812 8.48438 9.60938C8.95312 9.85938 9.45312 9.98438 9.98438 9.98438ZM23.0156 3.98438H21V15H3.98438V17.0156H21C21.5625 17.0156 22.0312 16.8281 22.4062 16.4531C22.8125 16.0469 23.0156 15.5625 23.0156 15V3.98438Z" fill="#3E3E3E"/>
</svg>
