<svg width="802" height="450" viewBox="0 0 802 450" fill="none" xmlns="http://www.w3.org/2000/svg">
<g filter="url(#filter0_d_118_2756)">
<rect x="28" y="21" width="746" height="394" rx="18" fill="white"/>
<rect x="141" y="195.77" width="154.785" height="60.0956" rx="20" fill="#D9D9D9" fill-opacity="0.38"/>
<rect x="158.29" y="244.028" width="26.39" height="3.64216" rx="1.82108" fill="#CCCCCC"/>
<rect x="158.29" y="208.517" width="119.21" height="6.37378" rx="3.18689" fill="#CCCCCC"/>
<rect x="158.29" y="222.175" width="119.21" height="6.37378" rx="3.18689" fill="#CCCCCC"/>
<rect x="141" y="112" width="154.785" height="66.8013" rx="20" fill="#D9D9D9" fill-opacity="0.38"/>
<rect x="158.29" y="149.332" width="119.21" height="6.37378" rx="3.18689" fill="#CCCCCC"/>
<rect x="158.29" y="136.585" width="119.21" height="6.37378" rx="3.18689" fill="#CCCCCC"/>
<rect x="158.29" y="167.543" width="26.39" height="3.64216" rx="1.82108" fill="#CCCCCC"/>
<rect x="158.29" y="123.837" width="119.21" height="6.37378" rx="3.18689" fill="#CCCCCC"/>
<rect x="158.29" y="285.913" width="119.21" height="6.37378" rx="3.18689" fill="#CCCCCC"/>
<rect x="141" y="271.344" width="154.785" height="51.9008" rx="20" fill="#D9D9D9" fill-opacity="0.38"/>
<rect x="158.29" y="308.677" width="26.39" height="3.64216" rx="1.82108" fill="#CCCCCC"/>
<rect x="324" y="195.77" width="154.785" height="60.0956" rx="20" fill="#D9D9D9" fill-opacity="0.38"/>
<rect x="341.29" y="244.028" width="26.39" height="3.64216" rx="1.82108" fill="#CCCCCC"/>
<rect x="341.29" y="208.517" width="119.21" height="6.37378" rx="3.18689" fill="#CCCCCC"/>
<rect x="341.29" y="222.175" width="119.21" height="6.37378" rx="3.18689" fill="#CCCCCC"/>
<rect x="324" y="112" width="154.785" height="66.8013" rx="20" fill="#D9D9D9" fill-opacity="0.38"/>
<rect x="341.29" y="149.332" width="119.21" height="6.37378" rx="3.18689" fill="#CCCCCC"/>
<rect x="341.29" y="136.585" width="119.21" height="6.37378" rx="3.18689" fill="#CCCCCC"/>
<rect x="341.29" y="167.543" width="26.39" height="3.64216" rx="1.82108" fill="#CCCCCC"/>
<rect x="341.29" y="123.837" width="119.21" height="6.37378" rx="3.18689" fill="#CCCCCC"/>
<rect x="341.29" y="285.913" width="119.21" height="6.37378" rx="3.18689" fill="#CCCCCC"/>
<rect x="324" y="271.344" width="154.785" height="51.9008" rx="20" fill="#D9D9D9" fill-opacity="0.38"/>
<rect x="341.29" y="308.677" width="26.39" height="3.64216" rx="1.82108" fill="#CCCCCC"/>
<rect x="507" y="195.77" width="154.785" height="60.0956" rx="20" fill="#D9D9D9" fill-opacity="0.38"/>
<rect x="524.29" y="244.028" width="26.39" height="3.64216" rx="1.82108" fill="#CCCCCC"/>
<rect x="524.29" y="208.517" width="119.21" height="6.37378" rx="3.18689" fill="#CCCCCC"/>
<rect x="524.29" y="222.175" width="119.21" height="6.37378" rx="3.18689" fill="#CCCCCC"/>
<rect x="507" y="112" width="154.785" height="66.8013" rx="20" fill="#D9D9D9" fill-opacity="0.38"/>
<rect x="524.29" y="149.332" width="119.21" height="6.37378" rx="3.18689" fill="#CCCCCC"/>
<rect x="524.29" y="136.585" width="119.21" height="6.37378" rx="3.18689" fill="#CCCCCC"/>
<rect x="524.29" y="167.543" width="26.39" height="3.64216" rx="1.82108" fill="#CCCCCC"/>
<rect x="524.29" y="123.837" width="119.21" height="6.37378" rx="3.18689" fill="#CCCCCC"/>
<rect x="524.29" y="285.913" width="119.21" height="6.37378" rx="3.18689" fill="#CCCCCC"/>
<rect x="507" y="271.344" width="154.785" height="51.9008" rx="20" fill="#D9D9D9" fill-opacity="0.38"/>
<rect x="524.29" y="308.677" width="26.39" height="3.64216" rx="1.82108" fill="#CCCCCC"/>
</g>
<defs>
<filter id="filter0_d_118_2756" x="0" y="0" width="802" height="450" filterUnits="userSpaceOnUse" color-interpolation-filters="sRGB">
<feFlood flood-opacity="0" result="BackgroundImageFix"/>
<feColorMatrix in="SourceAlpha" type="matrix" values="0 0 0 0 0 0 0 0 0 0 0 0 0 0 0 0 0 0 127 0" result="hardAlpha"/>
<feMorphology radius="7" operator="dilate" in="SourceAlpha" result="effect1_dropShadow_118_2756"/>
<feOffset dy="7"/>
<feGaussianBlur stdDeviation="10.5"/>
<feComposite in2="hardAlpha" operator="out"/>
<feColorMatrix type="matrix" values="0 0 0 0 0 0 0 0 0 0 0 0 0 0 0 0 0 0 0.25 0"/>
<feBlend mode="normal" in2="BackgroundImageFix" result="effect1_dropShadow_118_2756"/>
<feBlend mode="normal" in="SourceGraphic" in2="effect1_dropShadow_118_2756" result="shape"/>
</filter>
</defs>
</svg>
